<?xml version="1.0" encoding="utf-8"?>
<svg viewBox="41.667 0 637.295 481.899" xmlns="http://www.w3.org/2000/svg">
  <g transform="matrix(0.9921, 0, 0, 0.9921, -277.350006, -250.018402)">
    <rect x="0" y="0" width="1512" height="1008" fill="rgb(100%, 100%, 100%)" style="visibility: hidden;"/>
    <rect class="anchor" x="0" y="0" width="1" height="1" style="visibility: hidden;"/>
    <g transform="matrix(1, 0, 0, 1, 360, 0)">
      <rect class="anchor" x="0" y="0" width="1" height="1" style="visibility: hidden;"/>
    </g>
    <g transform="matrix(1, 0, 0, 1, 357.875, 401)">
      <path fill-mode="evenodd" fill="rgb(0.784313725490196%, 64.7058823529412%, 33.7254901960784%)" d="M 189.054 -95.394 L 190.812 -94.209 L 191.998 -92.45 L 192.433 -90.296 L 192.022 -88.2 L 192.004 -88.173 L 191.998 -88.143 L 191.626 -87.591 L 190.899 -86.473 L 190.389 -85.939 L 190.371 -85.926 L 190.358 -85.907 L 189.842 -85.376 L 189.59 -85.202 L 189.423 -84.983 L 188.451 -84.154 L 188.334 -84.085 L 188.27 -84.005 L 187.404 -83.316 L 186.746 -82.779 L 185.916 -81.929 L 185.424 -81.591 L 185.125 -81.238 L 183.928 -80.346 L 183.764 -80.259 L 183.688 -80.174 L 182.508 -79.367 L 181.163 -78.385 L 181.077 -78.341 L 181.038 -78.296 L 179.411 -77.156 L 178.051 -76.157 L 177.656 -75.951 L 177.182 -75.611 L 175.432 -74.683 L 175.414 -74.678 L 175.395 -74.665 L 173.952 -73.9 L 172.71 -73.045 L 171.168 -71.888 L 171.156 -71.882 L 171.151 -71.876 L 169.486 -70.627 L 168.901 -70.316 L 168.684 -70.105 L 167.109 -69.229 L 165.651 -68.2 L 165.368 -68.057 L 165.251 -67.936 L 163.48 -66.853 L 161.957 -65.823 L 161.752 -65.723 L 161.669 -65.637 L 159.806 -64.498 L 159.753 -64.474 L 159.735 -64.455 L 157.909 -63.357 L 156.264 -62.291 L 156.263 -62.291 L 154.673 -61.219 L 154.249 -61.014 L 153.834 -60.734 L 152.126 -59.898 L 150.576 -59.005 L 150.445 -58.95 L 150.4 -58.907 L 148.766 -58.018 L 147.363 -57.076 L 147.176 -56.986 L 147.1 -56.908 L 145.237 -55.769 L 144.989 -55.658 L 144.903 -55.576 L 143.034 -54.563 L 142.944 -54.54 L 142.806 -54.445 L 141.26 -53.671 L 139.72 -52.659 L 139.056 -52.344 L 138.519 -52.029 L 136.94 -51.392 L 135.601 -50.734 L 134.15 -49.809 L 133.791 -49.644 L 133.472 -49.428 L 131.739 -48.581 L 129.959 -47.569 L 129.875 -47.547 L 129.816 -47.491 L 127.947 -46.476 L 127.878 -46.458 L 127.775 -46.386 L 126.011 -45.481 L 126.006 -45.48 L 124.078 -44.464 L 123.895 -44.418 L 123.595 -44.232 L 121.737 -43.426 L 121.732 -43.425 L 119.53 -42.423 L 119.523 -42.421 L 117.661 -41.554 L 115.863 -40.606 L 115.752 -40.578 L 115.582 -40.466 L 113.624 -39.537 L 113.621 -39.537 L 111.644 -38.547 L 111.575 -38.53 L 111.482 -38.469 L 109.583 -37.568 L 107.768 -36.612 L 107.616 -36.573 L 107.372 -36.419 L 105.436 -35.545 L 103.669 -34.614 L 103.352 -34.535 L 102.751 -34.213 L 100.941 -33.578 L 99.279 -32.804 L 99.142 -32.773 L 98.96 -32.665 L 96.691 -31.735 L 96.684 -31.734 L 94.764 -30.909 L 93.044 -30.003 L 92.842 -29.952 L 92.503 -29.747 L 90.467 -28.889 L 88.609 -27.958 L 88.545 -27.943 L 88.46 -27.886 L 86.406 -26.907 L 84.52 -25.869 L 84.513 -25.867 L 84.512 -25.865 L 82.652 -24.831 L 82.379 -24.759 L 81.831 -24.443 L 79.766 -23.634 L 79.763 -23.633 L 78.124 -22.942 L 76.42 -22.044 L 76.109 -21.966 L 75.524 -21.651 L 73.364 -20.887 L 71.773 -20.216 L 70.032 -19.321 L 69.9 -19.289 L 69.7 -19.162 L 67.638 -18.233 L 67.536 -18.211 L 67.412 -18.136 L 65.451 -17.325 L 65.293 -17.293 L 65.113 -17.196 L 63.323 -16.558 L 61.708 -15.839 L 61.388 -15.77 L 60.952 -15.554 L 59.164 -15.003 L 57.337 -14.285 L 57.122 -14.244 L 56.889 -14.127 L 54.979 -13.522 L 53.262 -12.903 L 51.484 -12.153 L 50.817 -12.016 L 49.912 -11.709 L 48.223 -11.458 L 46.66 -11.062 L 44.871 -10.514 L 44.862 -10.513 L 43.063 -9.933 L 41.236 -9.281 L 41.202 -9.275 L 41.177 -9.262 L 39.434 -8.645 L 39.332 -8.627 L 39.24 -8.581 L 37.387 -7.978 L 37.353 -7.972 L 37.331 -7.961 L 35.477 -7.362 L 35.471 -7.361 L 33.992 -6.849 L 32.509 -6.244 L 32.344 -6.211 L 32.159 -6.113 L 30.504 -5.54 L 30.377 -5.518 L 30.264 -5.462 L 28.753 -4.997 L 27.684 -4.496 L 27.509 -4.457 L 27.268 -4.319 L 25.506 -3.638 L 25.394 -3.617 L 25.279 -3.556 L 23.624 -2.979 L 23.615 -2.977 L 23.614 -2.977 L 22.505 -2.583 L 21.54 -2.126 L 21.417 -2.098 L 21.347 -2.039 L 20.005 -1.452 L 19.724 -1.393 L 19.354 -1.21 L 18.684 -1.003 L 18.194 -0.725 L 17.889 -0.644 L 17.089 -0.238 L 15.863 0.156 L 15.67 0.187 L 15.512 0.257 L 14.571 0.502 L 13.834 0.76 L 12.917 1.163 L 12.426 1.267 L 11.706 1.545 L 11.213 1.642 L 10.653 1.854 L 10.048 2.107 L 9.561 2.366 L 9.265 2.44 L 7.897 2.94 L 7.879 2.943 L 7.865 2.951 L 7.687 2.998 L 6.196 3.572 L 5.728 3.663 L 5.377 3.787 L 4.906 3.868 L 4.495 4.018 L 4.129 4.082 L 3.677 4.214 L 2.586 4.371 L 2.102 4.623 L 1.821 4.718 L 0.21 4.984 L 0 4.984 L -1.94 4.592 L -3.524 3.524 L -4.592 1.94 L -4.984 0 L -4.592 -1.94 L -3.524 -3.524 L -1.94 -4.592 L -1.554 -4.67 L -1.535 -4.682 L -1.352 -4.733 L -1.281 -4.757 L -1.102 -4.915 L -0.537 -5.187 L -0.321 -5.237 L -0.284 -5.258 L -0.175 -5.345 L -0.053 -5.393 L 0.266 -5.58 L 0.434 -5.626 L 0.557 -5.739 L 1.113 -6.023 L 1.124 -6.026 L 1.128 -6.03 L 1.809 -6.38 L 2.12 -6.456 L 2.723 -6.753 L 2.747 -6.761 L 2.855 -6.835 L 2.886 -6.85 L 2.909 -6.872 L 3.198 -7.004 L 4.32 -7.557 L 4.454 -7.578 L 4.558 -7.626 L 4.714 -7.668 L 4.728 -7.677 L 5.048 -7.768 L 5.294 -7.984 L 6.196 -8.411 L 6.346 -8.445 L 6.432 -8.517 L 7.438 -8.945 L 7.82 -9.024 L 8.318 -9.241 L 8.715 -9.34 L 9.324 -9.628 L 9.508 -9.669 L 9.77 -9.817 L 10.882 -10.239 L 11.118 -10.283 L 11.363 -10.399 L 12.385 -10.694 L 12.853 -10.856 L 13.304 -11.143 L 13.552 -11.215 L 14.454 -11.708 L 15.419 -12.056 L 16.428 -12.549 L 17.531 -13.133 L 17.722 -13.181 L 18.047 -13.376 L 19.36 -13.924 L 19.409 -13.934 L 19.459 -13.963 L 21.082 -14.619 L 22.532 -15.255 L 23.737 -15.899 L 24.019 -15.97 L 24.561 -16.267 L 26.355 -16.914 L 27.748 -17.48 L 29.205 -18.164 L 29.348 -18.197 L 29.541 -18.311 L 31.164 -18.97 L 31.33 -19.003 L 31.516 -19.102 L 33.358 -19.738 L 33.391 -19.743 L 33.413 -19.755 L 35.256 -20.387 L 35.266 -20.389 L 36.987 -20.998 L 36.991 -20.999 L 38.831 -21.702 L 38.945 -21.723 L 39.059 -21.784 L 40.9 -22.421 L 40.98 -22.435 L 41.047 -22.469 L 42.994 -23.106 L 43.177 -23.136 L 43.33 -23.206 L 45.278 -23.74 L 45.689 -23.797 L 45.942 -23.887 L 47.208 -24.101 L 48.483 -24.639 L 48.607 -24.664 L 48.748 -24.744 L 50.697 -25.48 L 50.88 -25.514 L 51.067 -25.608 L 52.831 -26.166 L 54.632 -26.902 L 54.857 -26.947 L 55.116 -27.08 L 56.8 -27.627 L 58.336 -28.311 L 58.495 -28.345 L 58.696 -28.459 L 60.591 -29.183 L 62.387 -29.956 L 62.392 -29.957 L 64.233 -30.787 L 65.968 -31.724 L 66.182 -31.779 L 66.562 -32.009 L 68.517 -32.834 L 68.648 -32.861 L 68.799 -32.946 L 70.729 -33.67 L 72.322 -34.51 L 72.523 -34.56 L 72.859 -34.764 L 74.815 -35.589 L 74.866 -35.6 L 74.917 -35.63 L 76.664 -36.347 L 78.179 -37.189 L 78.214 -37.198 L 78.235 -37.219 L 80.305 -38.359 L 80.443 -38.394 L 80.675 -38.548 L 82.844 -39.583 L 82.848 -39.583 L 84.836 -40.579 L 84.975 -40.612 L 85.179 -40.739 L 87.178 -41.613 L 88.915 -42.528 L 89.104 -42.576 L 89.417 -42.768 L 91.583 -43.698 L 91.65 -43.712 L 91.724 -43.756 L 93.871 -44.636 L 95.625 -45.483 L 95.908 -45.549 L 96.342 -45.782 L 97.995 -46.362 L 99.524 -47.168 L 99.677 -47.206 L 99.92 -47.361 L 101.857 -48.234 L 103.624 -49.165 L 103.735 -49.192 L 103.905 -49.305 L 105.863 -50.234 L 105.866 -50.234 L 107.842 -51.224 L 107.911 -51.24 L 108.004 -51.302 L 109.903 -52.203 L 111.718 -53.159 L 111.814 -53.183 L 111.957 -53.279 L 113.909 -54.222 L 113.984 -54.24 L 114.082 -54.303 L 116.355 -55.337 L 116.373 -55.341 L 116.388 -55.351 L 118.122 -56.143 L 119.901 -57.08 L 119.904 -57.081 L 121.583 -58 L 121.586 -58.001 L 123.371 -59.018 L 123.373 -59.018 L 125.267 -60.137 L 125.478 -60.228 L 125.648 -60.347 L 127.216 -61.151 L 128.661 -62.101 L 129 -62.262 L 129.322 -62.487 L 131.169 -63.429 L 131.355 -63.474 L 131.644 -63.65 L 132.822 -64.148 L 134.134 -65.036 L 134.526 -65.226 L 134.916 -65.495 L 136.663 -66.37 L 138.304 -67.306 L 139.904 -68.284 L 141.362 -69.313 L 141.781 -69.524 L 141.94 -69.68 L 143.782 -70.727 L 145.423 -71.714 L 145.661 -71.818 L 145.858 -71.956 L 147.324 -72.707 L 148.58 -73.589 L 148.744 -73.672 L 148.815 -73.748 L 150.576 -74.888 L 150.671 -74.933 L 150.709 -74.972 L 152.565 -76.125 L 152.616 -76.148 L 152.635 -76.167 L 154.357 -77.221 L 155.826 -78.248 L 156.091 -78.381 L 156.2 -78.493 L 157.908 -79.538 L 159.479 -80.648 L 159.951 -80.886 L 160.125 -81.054 L 161.612 -81.881 L 162.897 -82.845 L 162.909 -82.852 L 162.914 -82.858 L 164.579 -84.107 L 164.747 -84.196 L 164.826 -84.284 L 166.485 -85.426 L 166.829 -85.595 L 167.185 -85.851 L 168.935 -86.779 L 168.953 -86.783 L 168.972 -86.797 L 170.4 -87.554 L 171.518 -88.331 L 171.587 -88.365 L 171.616 -88.398 L 173.285 -89.524 L 173.285 -89.525 L 174.674 -90.497 L 174.823 -90.572 L 174.888 -90.641 L 176.133 -91.451 L 176.319 -91.539 L 176.392 -91.612 L 177.285 -92.143 L 178.111 -92.809 L 178.663 -93.121 L 178.892 -93.353 L 179.962 -93.991 L 180.119 -94.059 L 180.174 -94.112 L 181.134 -94.643 L 181.498 -94.738 L 182.42 -95.188 L 183.61 -95.548 L 185.222 -95.79 L 185.368 -95.82 L 186.103 -95.828 L 186.153 -95.828 L 186.153 -95.828 L 186.889 -95.829 L 186.9 -95.829 Z "/>
      <g transform="matrix(1, 0, 0, 1, 102.625, -39.125)">
        <path fill-mode="evenodd" fill="rgb(0.784313725490196%, 64.7058823529412%, 33.7254901960784%)" d="M 1.056 -4.496 L 1.477 -4.495 L 1.477 -4.495 L 1.493 -4.495 L 2.021 -4.493 L 2.022 -4.492 L 2.097 -4.492 L 2.315 -4.487 L 3.135 -4.306 L 4.076 -4.12 L 4.129 -4.085 L 4.188 -4.072 L 4.841 -3.62 L 5.613 -3.115 L 5.657 -3.073 L 6.089 -2.808 L 6.568 -2.309 L 7.123 -1.926 L 7.281 -1.748 L 7.585 -1.564 L 8.037 -1.169 L 9.023 0.15 L 9.045 0.168 L 9.255 0.452 L 9.328 0.534 L 9.35 0.58 L 9.485 0.762 L 9.525 0.838 L 9.565 0.873 L 9.822 1.236 L 10.326 2.233 L 10.45 2.388 L 10.667 2.931 L 10.952 3.524 L 11.052 3.957 L 11.387 4.775 L 11.503 5.295 L 11.667 5.775 L 11.667 5.775 L 11.991 6.643 L 12.07 7.076 L 12.245 7.514 L 12.33 7.91 L 12.544 8.484 L 12.605 8.814 L 12.752 9.15 L 13.005 10.146 L 13.067 10.63 L 13.146 10.875 L 13.295 11.993 L 13.3 12.069 L 13.306 12.091 L 13.429 13.1 L 13.628 14.063 L 13.629 14.075 L 13.629 14.075 L 13.884 15.285 L 13.925 15.669 L 13.975 15.828 L 14.06 16.499 L 14.234 17.039 L 14.348 17.749 L 14.502 18.233 L 14.634 19.277 L 14.829 20.273 L 14.931 21.295 L 14.954 21.4 L 14.98 22.517 L 15.054 23.254 L 15.309 24.408 L 15.443 25.606 L 15.47 25.728 L 15.492 26.832 L 15.651 27.797 L 15.687 28.22 L 15.72 28.337 L 15.835 29.66 L 16.029 30.834 L 16.069 31.317 L 16.103 31.44 L 16.225 33.004 L 16.431 34.421 L 16.464 34.863 L 16.489 34.958 L 16.627 36.932 L 16.639 37.277 L 16.643 37.295 L 16.668 38.65 L 16.832 39.764 L 16.901 40.694 L 16.907 40.726 L 16.921 42.297 L 17.025 43.741 L 17.042 44.178 L 17.044 44.19 L 17.058 45.674 L 17.144 46.956 L 17.397 48.29 L 17.51 49.467 L 17.524 49.532 L 17.545 51.314 L 17.545 51.323 L 17.545 51.323 L 17.565 53.062 L 17.66 54.764 L 17.779 56.465 L 17.798 56.974 L 17.798 58.622 L 17.899 60.069 L 18.096 62.03 L 18.133 62.756 L 18.133 64.348 L 18.217 65.856 L 18.402 67.523 L 18.448 68.327 L 18.448 70.13 L 18.531 71.627 L 18.717 73.248 L 18.995 74.912 L 19.054 75.607 L 19.087 75.737 L 19.183 77.553 L 19.369 79.323 L 19.564 80.878 L 19.593 81.319 L 19.611 81.393 L 19.716 83.267 L 19.716 83.271 L 19.779 84.276 L 20.033 85.29 L 20.163 86.321 L 20.241 86.626 L 20.334 88.211 L 20.482 89.468 L 20.719 90.569 L 20.777 91.101 L 20.841 91.31 L 21.048 93.169 L 21.064 93.456 L 21.078 93.509 L 21.143 94.477 L 21.424 95.623 L 21.489 96.151 L 21.574 96.411 L 21.725 97.542 L 22.017 98.634 L 22.084 99.135 L 22.184 99.425 L 22.366 100.599 L 22.627 101.813 L 22.675 102.26 L 22.736 102.449 L 22.958 104.199 L 22.959 104.21 L 23.139 105.556 L 23.418 106.967 L 23.496 107.747 L 23.545 107.937 L 23.633 109.339 L 23.745 110.119 L 24.045 111.24 L 24.178 112.236 L 24.277 112.604 L 24.334 113.405 L 24.571 114.288 L 24.713 115.356 L 24.807 115.715 L 24.911 117.377 L 24.923 117.75 L 24.925 117.762 L 24.938 118.999 L 25.005 119.867 L 25.169 120.927 L 25.172 120.959 L 25.174 120.967 L 25.379 122.293 L 25.467 123.409 L 25.467 124.838 L 25.553 126.035 L 25.569 126.484 L 25.572 126.496 L 25.585 127.957 L 25.673 129.188 L 25.693 129.716 L 25.693 130.997 L 25.827 131.934 L 25.903 132.974 L 25.903 140.071 L 26.047 141.146 L 26.113 142.12 L 26.113 143.696 L 26.113 143.782 L 26.098 144.975 L 26.184 146.253 L 26.201 146.745 L 26.199 146.888 L 26.177 147.973 L 26.226 148.795 L 26.373 149.863 L 26.404 150.306 L 26.426 150.394 L 26.491 151.398 L 26.628 152.37 L 26.665 152.893 L 26.689 152.986 L 26.719 153.539 L 26.808 153.873 L 26.875 154.373 L 26.972 154.657 L 27.075 155.341 L 27.21 155.79 L 27.366 156.833 L 27.489 157.296 L 27.517 157.673 L 27.584 157.847 L 27.78 158.882 L 27.81 158.996 L 28.173 159.709 L 28.191 159.827 L 28.223 159.899 L 28.366 160.107 L 28.622 160.617 L 28.727 161.057 L 28.809 161.247 L 28.816 161.295 L 29.18 162.198 L 29.313 162.811 L 29.33 162.872 L 29.486 163.072 L 29.611 163.478 L 29.895 164.035 L 29.996 164.67 L 30.151 164.938 L 30.228 165.224 L 30.487 165.608 L 30.944 167.874 L 30.918 168.203 L 31.155 169.248 L 31.156 169.254 L 31.446 170.438 L 31.57 171.448 L 31.246 173.057 L 30.359 174.371 L 29.045 175.257 L 27.436 175.582 L 26.034 175.339 L 24.846 174.671 L 23.825 173.851 L 23.75 173.756 L 23.623 173.677 L 23.275 173.36 L 23.075 173.324 L 22.732 173.122 L 22.384 173.011 L 21.91 172.637 L 21.353 172.309 L 20.729 171.778 L 20.571 171.573 L 20.335 171.41 L 19.815 170.878 L 19.551 170.48 L 19.515 170.46 L 18.125 168.949 L 17.97 168.594 L 17.803 168.402 L 17.699 167.976 L 17.527 167.583 L 17.351 167.241 L 17.094 166.77 L 16.784 166.353 L 16.437 165.692 L 16.069 165.062 L 15.616 164.506 L 15.469 164.075 L 15.226 163.681 L 15.092 162.966 L 14.843 162.235 L 14.815 162.049 L 14.62 161.67 L 14.396 160.991 L 14.272 160.234 L 14.1 159.696 L 14.064 159.418 L 14 159.247 L 13.911 158.753 L 13.713 158.261 L 13.548 157.492 L 13.339 156.873 L 13.195 156.005 L 13.009 155.395 L 12.898 154.412 L 12.716 153.476 L 12.668 152.984 L 12.618 152.815 L 12.512 151.789 L 12.326 150.706 L 12.288 150.268 L 12.25 150.137 L 12.123 148.802 L 12.098 148.286 L 12.091 148.254 L 12.067 147.052 L 11.974 145.66 L 11.961 145.267 L 11.958 145.253 L 11.94 143.787 L 11.939 143.696 L 11.939 142.592 L 11.796 141.516 L 11.729 140.543 L 11.729 133.48 L 11.595 132.544 L 11.519 131.503 L 11.519 129.969 L 11.433 128.772 L 11.414 128.244 L 11.414 128.178 L 11.427 126.782 L 11.344 125.618 L 11.325 125.091 L 11.325 123.952 L 11.202 123.157 L 11.199 123.125 L 11.197 123.117 L 10.992 121.791 L 10.955 121.33 L 10.925 121.218 L 10.821 119.876 L 10.799 119.309 L 10.799 119.309 L 10.799 119.233 L 10.812 118.02 L 10.767 117.299 L 10.539 116.446 L 10.406 115.45 L 10.307 115.081 L 10.25 114.281 L 10.013 113.398 L 9.939 112.84 L 9.834 112.528 L 9.629 111.095 L 9.593 110.597 L 9.567 110.499 L 9.487 109.218 L 9.264 107.971 L 9.241 107.72 L 9.21 107.625 L 9.004 106.085 L 8.993 105.924 L 8.98 105.879 L 8.824 104.448 L 8.593 103.378 L 8.56 103.071 L 8.51 102.927 L 8.357 101.933 L 8.047 100.775 L 7.966 100.171 L 7.86 99.844 L 7.69 98.577 L 7.365 97.146 L 7.265 96.272 L 7.199 96.019 L 7.103 94.592 L 6.949 93.206 L 6.716 92.127 L 6.663 91.632 L 6.6 91.431 L 6.393 89.677 L 6.371 89.301 L 6.354 89.236 L 6.287 88.105 L 6.036 87.104 L 5.91 86.103 L 5.83 85.793 L 5.726 84.132 L 5.724 84.07 L 5.722 84.063 L 5.63 82.411 L 5.454 81.004 L 5.445 80.869 L 5.434 80.834 L 5.227 78.867 L 5.208 78.523 L 5.195 78.471 L 5.111 76.869 L 4.867 75.407 L 4.832 75.005 L 4.798 74.885 L 4.607 72.915 L 4.594 72.645 L 4.584 72.604 L 4.479 70.73 L 4.468 70.324 L 4.468 68.715 L 4.303 67.239 L 4.283 66.88 L 4.268 66.822 L 4.164 64.949 L 4.152 64.543 L 4.152 63.105 L 3.979 61.379 L 3.962 61.034 L 3.95 60.987 L 3.865 59.215 L 3.857 58.866 L 3.857 57.141 L 3.78 55.535 L 3.78 55.533 L 3.678 53.699 L 3.666 53.295 L 3.667 53.215 L 3.688 51.319 L 3.688 51.319 L 3.688 51.319 L 3.703 50.139 L 3.513 48.985 L 3.451 48.249 L 3.423 48.132 L 3.34 46.254 L 3.333 45.937 L 3.333 45.872 L 3.347 44.404 L 3.27 42.953 L 3.259 42.573 L 3.259 42.512 L 3.271 41.167 L 3.137 40.057 L 3.084 39.209 L 3.086 39.081 L 3.116 37.479 L 3.059 35.897 L 2.909 34.471 L 2.887 34.06 L 2.875 34.011 L 2.814 32.491 L 2.671 31.315 L 2.643 30.858 L 2.627 30.793 L 2.565 29.459 L 2.418 28.258 L 2.367 27.436 L 2.369 27.304 L 2.387 26.379 L 2.224 25.472 L 2.16 24.772 L 2.125 24.632 L 2.052 23.28 L 2.042 22.916 L 2.044 22.766 L 2.063 21.92 L 1.963 21.199 L 1.923 20.628 L 1.904 20.55 L 1.876 19.865 L 1.747 19.298 L 1.636 18.32 L 1.59 18.128 L 1.549 17.123 L 1.426 16.14 L 1.426 16.13 L 1.267 14.902 L 1.236 14.434 L 1.22 14.366 L 1.162 13.117 L 1.162 13.112 L 1.12 12.266 L 1.04 11.729 L 0.856 10.937 L 0.746 9.993 L 0.702 9.805 L 0.69 9.511 L 0.574 9.012 L 0.543 8.748 L 0.495 8.611 L 0.36 7.793 L 0.301 7.092 L 0.282 7.01 L 0.277 6.849 L 0.229 6.675 L 0.183 6.344 L 0.104 6.131 L 0.061 5.891 L 0.014 5.848 L -0.211 5.535 L -0.721 5.007 L -0.988 4.453 L -1.217 4.134 L -1.229 4.078 L -1.692 3.648 L -1.966 3.495 L -2.166 3.334 L -2.166 3.334 L -2.357 3.181 L -2.625 2.844 L -2.756 2.756 L -3.088 2.263 L -3.465 1.791 L -3.468 1.775 L -3.475 1.767 L -3.505 1.708 L -3.526 1.614 L -3.591 1.517 L -3.898 0 L -3.591 -1.517 L -3.533 -1.603 L -3.515 -1.685 L -3.465 -1.791 L -3.465 -1.791 L -3.465 -1.791 L -3.094 -2.255 L -2.756 -2.756 L -2.62 -2.848 L -2.349 -3.187 L -2.166 -3.334 L -2.16 -3.337 L -2.158 -3.341 L -1.974 -3.488 L -1.457 -3.779 L -1.1 -4.041 L -0.899 -4.094 L -0.678 -4.218 L 0.083 -4.351 L 0.551 -4.473 L 0.74 -4.485 L 1.051 -4.496 Z "/>
      </g>
      <g transform="matrix(1, 0, 0, 1, 223.375, -110)">
        <path fill-mode="evenodd" fill="rgb(0.784313725490196%, 64.7058823529412%, 33.7254901960784%)" d="M 1.666 -4.299 L 3.113 -3.323 L 4.089 -1.877 L 4.446 -0.105 L 4.305 0.877 L 4.299 1.089 L 4.298 1.091 L 4.298 1.109 L 4.284 1.497 L 4.299 2.085 L 4.3 2.207 L 4.3 2.943 L 4.263 3.542 L 4.155 4.407 L 4.06 4.703 L 3.992 5.171 L 3.896 5.491 L 3.902 5.772 L 3.902 5.779 L 3.902 5.779 L 3.928 6.929 L 3.928 6.943 L 3.928 6.944 L 3.954 8.199 L 3.955 8.304 L 3.945 8.612 L 3.875 9.723 L 3.875 10.932 L 3.866 11.232 L 3.782 12.614 L 3.693 12.959 L 3.573 13.754 L 3.325 14.562 L 3.276 15.356 L 3.276 15.356 L 3.198 16.702 L 3.144 16.911 L 3.059 17.603 L 2.784 18.715 L 2.73 19.812 L 2.699 19.934 L 2.643 20.519 L 2.408 21.724 L 2.309 22.948 L 2.291 24.477 L 2.365 25.748 L 2.374 26.069 L 2.374 26.137 L 2.354 27.719 L 2.351 27.729 L 2.343 27.986 L 2.243 29.577 L 2.32 31.143 L 2.32 31.155 L 2.321 31.156 L 2.413 33.03 L 2.414 33.068 L 2.415 33.072 L 2.507 35.157 L 2.509 35.247 L 2.511 35.254 L 2.57 37.24 L 2.57 37.279 L 2.571 37.281 L 2.624 39.48 L 2.624 39.498 L 2.624 39.499 L 2.675 41.803 L 2.677 41.942 L 2.663 42.349 L 2.525 44.355 L 2.577 45.79 L 2.828 47.926 L 2.859 48.447 L 2.87 48.495 L 2.945 51.111 L 2.945 51.12 L 2.945 51.12 L 3.015 53.554 L 3.241 56.068 L 3.265 56.584 L 3.268 56.599 L 3.295 59.431 L 3.42 62.248 L 3.421 62.286 L 3.422 62.29 L 3.549 65.457 L 3.767 68.598 L 3.769 68.651 L 3.771 68.658 L 3.996 72.212 L 4.01 72.637 L 4.01 76.314 L 4.135 80.086 L 4.136 80.142 L 4.136 80.145 L 4.235 83.985 L 4.641 87.796 L 4.669 88.308 L 4.678 88.348 L 4.783 92.544 L 4.783 92.56 L 4.783 92.56 L 4.885 96.828 L 5.189 101.178 L 5.205 101.649 L 5.205 109.883 L 5.514 109.032 L 5.655 108.779 L 5.693 108.604 L 6.761 106.251 L 6.884 106.061 L 6.911 105.95 L 7.979 103.918 L 8.06 103.832 L 8.09 103.722 L 9.263 101.694 L 9.31 101.647 L 9.361 101.534 L 10.428 99.825 L 10.43 99.823 L 11.479 98.144 L 11.682 97.951 L 11.92 97.529 L 13.104 96.06 L 13.254 95.941 L 13.38 95.742 L 14.645 94.371 L 14.902 94.187 L 15.084 93.939 L 16.352 92.803 L 16.467 92.732 L 16.534 92.646 L 17.785 91.603 L 18.172 91.378 L 19.054 90.772 L 20.101 90.247 L 21.223 89.573 L 22.138 89.173 L 22.541 88.963 L 23.757 88.556 L 23.861 88.539 L 23.947 88.497 L 25.267 88.089 L 27.226 87.789 L 27.317 87.789 L 28.534 87.806 L 29.854 87.806 L 30.771 87.871 L 32.278 88.086 L 33.07 88.354 L 33.743 88.484 L 35.144 89.045 L 35.297 89.136 L 35.4 89.159 L 36.806 89.806 L 37.048 89.965 L 37.18 89.999 L 38.572 90.765 L 38.738 90.927 L 39.172 91.147 L 40.663 92.211 L 40.751 92.314 L 40.924 92.41 L 42.513 93.681 L 42.809 94.051 L 43.236 94.361 L 44.585 95.84 L 44.843 96.251 L 45.092 96.47 L 46.163 97.986 L 47.405 99.405 L 47.923 100.261 L 48.217 100.568 L 49.462 102.847 L 49.523 103.085 L 49.785 103.525 L 50.695 105.745 L 51.765 108.076 L 51.786 108.171 L 51.858 108.289 L 52.998 110.981 L 53.024 111.105 L 53.104 111.247 L 54.246 114.252 L 54.311 114.602 L 54.475 114.969 L 55.305 118.183 L 55.306 118.189 L 56.214 121.412 L 56.219 121.443 L 56.225 121.458 L 57.16 124.776 L 57.205 125.095 L 57.288 125.309 L 58.033 129.049 L 58.034 129.061 L 58.865 133.109 L 58.877 133.22 L 58.896 133.271 L 59.649 137.326 L 59.666 137.51 L 59.692 137.586 L 60.318 141.755 L 60.325 141.846 L 60.335 141.876 L 60.957 146.429 L 61.685 150.79 L 61.699 150.958 L 61.719 151.019 L 62.346 155.61 L 62.348 155.638 L 62.35 155.644 L 62.977 160.235 L 62.979 160.264 L 62.981 160.27 L 63.607 164.861 L 63.608 164.872 L 64.232 169.234 L 64.233 169.243 L 64.868 173.366 L 64.884 173.573 L 64.905 173.64 L 65.421 178.081 L 66.048 182.342 L 66.049 182.354 L 66.672 186.397 L 66.673 186.406 L 67.308 190.197 L 67.335 190.511 L 67.365 190.612 L 67.783 194.472 L 67.784 194.477 L 68.17 197.664 L 68.747 200.639 L 69.342 203.307 L 69.358 203.457 L 69.388 203.535 L 69.877 206.073 L 70.465 208.325 L 70.47 208.36 L 70.477 208.376 L 70.963 210.243 L 71.51 211.83 L 71.511 211.841 L 72.121 213.564 L 72.124 213.58 L 72.127 213.587 L 72.482 214.575 L 72.612 214.814 L 72.92 215.211 L 73.149 215.63 L 73.726 215.747 L 75.56 216.984 L 76.797 218.818 L 77.25 221.063 L 76.861 223.15 L 76.813 223.229 L 76.797 223.309 L 76.448 223.827 L 75.797 224.892 L 75.358 225.387 L 75.038 225.624 L 74.805 225.934 L 74.348 226.33 L 73.318 226.95 L 72.723 227.357 L 72.593 227.385 L 72.462 227.464 L 70.791 227.771 L 70.303 227.876 L 69.785 227.882 L 69.693 227.883 L 67.618 227.543 L 67.037 227.349 L 66.728 227.186 L 66.51 227.14 L 65.825 226.836 L 65.53 226.648 L 65.172 226.495 L 64.984 226.3 L 64.263 225.84 L 63.044 224.455 L 62.9 224.146 L 62.791 224.034 L 62.467 223.451 L 62.467 223.45 L 62.141 222.892 L 61.737 222.336 L 61.456 221.793 L 61.269 221.597 L 60.655 220.475 L 60.573 220.156 L 60.216 219.5 L 59.705 218.074 L 59.698 218.035 L 59.682 218.005 L 59.066 216.264 L 59.047 216.153 L 58.996 216.053 L 58.395 214.202 L 58.348 213.909 L 58.245 213.667 L 57.748 211.605 L 57.743 211.57 L 57.737 211.555 L 57.141 209.071 L 57.115 208.858 L 57.069 208.738 L 56.553 206.061 L 55.959 203.395 L 55.943 203.25 L 55.914 203.175 L 55.29 199.958 L 55.255 199.598 L 55.212 199.46 L 54.795 196.023 L 54.789 195.931 L 54.782 195.907 L 54.377 192.165 L 53.796 188.474 L 53.793 188.43 L 53.788 188.417 L 53.162 184.354 L 53.155 184.256 L 53.144 184.222 L 52.535 179.84 L 52.525 179.703 L 52.512 179.662 L 51.995 175.219 L 51.401 171.16 L 51.398 171.116 L 51.394 171.104 L 50.767 166.724 L 50.763 166.665 L 50.757 166.648 L 50.13 162.057 L 50.128 162.029 L 50.126 162.022 L 49.5 157.432 L 49.498 157.403 L 49.496 157.397 L 48.87 152.811 L 48.173 148.428 L 48.162 148.296 L 48.147 148.25 L 47.52 143.659 L 47.519 143.651 L 46.903 139.545 L 46.219 135.615 L 45.412 131.684 L 45.402 131.593 L 45.386 131.551 L 44.715 128.026 L 43.858 124.985 L 43.854 124.954 L 43.847 124.939 L 42.912 121.621 L 42.897 121.514 L 42.865 121.441 L 42.108 118.516 L 41.109 115.885 L 40.032 113.344 L 38.952 110.99 L 38.925 110.866 L 38.83 110.706 L 38.014 108.715 L 37.265 107.344 L 36.269 106.206 L 36.057 105.855 L 35.849 105.672 L 34.85 104.258 L 34.096 103.46 L 33.004 102.587 L 32.036 101.896 L 31.184 101.449 L 30.208 101 L 29.728 100.824 L 29.389 100.776 L 28.533 100.776 L 28.252 100.78 L 27.817 100.914 L 27.813 100.914 L 27.4 101.053 L 26.736 101.472 L 26.423 101.615 L 26.147 101.805 L 25.561 102.099 L 25.028 102.542 L 24.093 103.42 L 23.196 104.392 L 22.43 105.393 L 21.528 106.837 L 21.526 106.839 L 20.542 108.415 L 19.508 110.202 L 18.609 111.911 L 17.745 113.817 L 17.009 115.844 L 16.199 118.277 L 16.08 118.504 L 16.045 118.68 L 15.159 120.811 L 14.583 122.952 L 13.988 125.833 L 13.979 125.856 L 13.976 125.884 L 13.338 128.758 L 12.727 131.719 L 12.724 131.726 L 12.125 134.628 L 11.62 137.666 L 11.607 137.7 L 11.602 137.758 L 11.045 140.732 L 10.86 143.705 L 10.852 143.734 L 10.845 143.889 L 10.527 147.279 L 10.508 147.346 L 10.492 147.568 L 9.989 151.095 L 9.69 154.388 L 9.412 157.835 L 9.311 161.244 L 9.3 161.294 L 9.272 161.788 L 8.874 165.275 L 8.692 168.761 L 8.675 168.828 L 8.651 169.218 L 8.256 172.376 L 8.059 175.743 L 8.043 175.803 L 8.025 176.117 L 7.643 179.323 L 7.452 182.192 L 7.351 185.24 L 7.336 185.304 L 7.3 185.855 L 6.919 188.816 L 6.825 191.458 L 6.824 191.459 L 6.824 191.464 L 6.719 194.21 L 6.712 194.24 L 6.701 194.493 L 6.489 197.04 L 6.484 197.058 L 6.481 197.124 L 6.268 199.255 L 6.265 199.267 L 6.263 199.299 L 6.066 201.08 L 5.952 202.645 L 5.865 202.966 L 5.757 203.809 L 5.45 204.987 L 5.376 205.75 L 5.046 206.873 L 4.887 207.651 L 4.778 207.91 L 4.725 208.074 L 4.665 208.564 L 4.55 209.03 L 4.547 209.037 L 4.445 209.45 L 4.327 209.717 L 4.28 209.993 L 3.893 210.696 L 3.577 211.409 L 3.387 211.616 L 3.254 211.859 L 2.677 212.388 L 2.148 212.964 L 1.905 213.098 L 1.698 213.288 L 1.018 213.586 L 0.283 213.99 L -0.026 214.043 L -0.305 214.165 L -0.681 214.26 L -2.313 214.466 L -2.313 214.466 L -2.628 214.466 L -5.174 213.951 L -7.254 212.549 L -8.656 210.47 L -8.81 209.708 L -9.087 209.13 L -9.164 208.619 L -9.291 208.263 L -9.391 207.671 L -9.402 207.533 L -9.419 207.482 L -9.52 206.782 L -9.59 205.821 L -9.59 205.422 L -9.666 205.044 L -9.684 204.872 L -9.712 204.794 L -9.916 203.572 L -10.011 202.457 L -10.011 201.136 L -10.032 199.609 L -10.033 199.514 L -10.033 196.104 L -10.129 194.182 L -10.138 193.838 L -10.138 191.525 L -10.129 191.182 L -10.017 189.039 L -10.017 186.585 L -10.017 186.542 L -9.997 183.492 L -9.995 183.484 L -9.983 183.102 L -9.771 179.928 L -9.769 179.92 L -9.768 179.883 L -9.545 176.977 L -9.444 173.757 L -9.444 173.756 L -9.444 173.746 L -9.317 170.057 L -9.314 170.045 L -9.311 169.932 L -9.1 166.13 L -9.1 166.129 L -8.894 162.536 L -8.779 158.836 L -8.779 154.839 L -8.778 154.689 L -8.672 150.161 L -8.668 150.142 L -8.659 149.879 L -8.354 145.397 L -8.252 140.812 L -8.25 140.805 L -8.248 140.688 L -8.037 135.734 L -8.034 135.721 L -8.03 135.611 L -7.728 130.873 L -7.728 101.875 L -8.027 97.6 L -8.037 97.303 L -8.042 97.283 L -8.147 92.876 L -8.147 92.873 L -8.246 88.908 L -8.625 85.071 L -8.648 84.611 L -8.656 84.575 L -8.761 80.484 L -8.762 80.447 L -8.762 80.445 L -8.844 76.562 L -8.845 76.421 L -8.845 72.811 L -9.029 69.428 L -9.029 69.423 L -9.222 66.203 L -9.229 65.975 L -9.232 65.96 L -9.311 62.709 L -9.311 62.706 L -9.39 59.782 L -9.393 59.602 L -9.393 59.542 L -9.367 56.831 L -9.526 54.345 L -9.54 53.926 L -9.537 53.746 L -9.462 51.111 L -9.462 51.111 L -9.395 48.756 L -9.516 46.611 L -9.527 46.252 L -9.523 46.036 L -9.452 44.031 L -9.441 43.983 L -9.418 43.581 L -9.187 41.537 L -9.141 39.492 L -9.141 39.492 L -9.141 39.487 L -9.088 37.274 L -9.087 37.272 L -9.087 37.249 L -9.028 35.245 L -9.026 35.239 L -9.025 35.17 L -8.932 33.059 L -8.931 33.057 L -8.931 33.044 L -8.837 31.143 L -8.837 31.142 L -8.745 29.256 L -8.722 29.165 L -8.683 28.672 L -8.397 26.878 L -8.242 25.59 L -8.167 24.281 L -8.159 24.251 L -8.15 24.079 L -7.961 22.173 L -7.936 22.091 L -7.916 21.847 L -7.629 20.147 L -7.592 20.044 L -7.571 19.869 L -7.312 18.757 L -7.21 17.535 L -7.125 17.236 L -7.037 16.599 L -6.714 15.465 L -6.626 14.538 L -6.625 14.537 L -6.503 13.195 L -6.401 12.843 L -6.306 12.21 L -6.036 11.329 L -5.978 10.701 L -5.978 9.566 L -5.951 9.057 L -5.842 7.997 L -5.82 6.939 L -5.82 6.938 L -5.82 6.935 L -5.794 5.773 L -5.794 5.773 L -5.771 4.721 L -5.725 4.518 L -5.568 3.449 L -5.369 2.782 L -5.351 2.64 L -5.351 2.207 L -5.35 2.091 L -5.332 1.35 L -5.223 0.862 L -5.025 -0.223 L -4.885 -0.598 L -4.732 -1.093 L -4.714 -1.119 L -4.704 -1.177 L -4.03 -2.456 L -3.745 -2.838 L -3.527 -3.022 L -3.323 -3.323 L -2.539 -3.852 L -2.171 -4.161 L -2.03 -4.195 L -1.877 -4.299 L -0.105 -4.656 Z "/>
      </g>
      <g transform="matrix(1, 0, 0, 1, 340.625, 34.25)">
        <path fill-mode="evenodd" fill="rgb(0.784313725490196%, 64.7058823529412%, 33.7254901960784%)" d="M 4.246 -25.564 L 4.356 -25.499 L 4.461 -25.478 L 4.92 -25.169 L 5.873 -24.61 L 6.221 -24.317 L 6.221 -24.316 L 6.793 -23.831 L 8.236 -21.948 L 8.246 -21.902 L 8.267 -21.878 L 8.54 -21.281 L 8.976 -20.509 L 9.034 -20.293 L 9.294 -19.861 L 9.751 -18.764 L 9.804 -18.503 L 9.958 -18.188 L 10.361 -16.866 L 10.938 -15.305 L 11.019 -14.857 L 11.193 -14.415 L 11.528 -12.777 L 11.529 -12.772 L 11.952 -10.911 L 11.991 -10.569 L 12.046 -10.406 L 12.313 -8.555 L 12.321 -8.439 L 12.333 -8.403 L 12.601 -6.233 L 12.636 -5.666 L 12.647 -5.619 L 12.708 -3.211 L 12.708 -3.189 L 12.709 -3.188 L 12.764 -0.778 L 12.765 -0.631 L 12.667 0.463 L 12.343 2.259 L 12.196 4.263 L 12.168 4.363 L 12.138 4.752 L 11.752 7.211 L 11.689 7.39 L 11.652 7.696 L 11.066 10.086 L 10.581 12.318 L 10.368 12.838 L 10.284 13.274 L 10.222 13.428 L 10.223 13.431 L 10.244 13.545 L 10.302 13.656 L 11.23 16.422 L 12.413 19.084 L 13.972 21.769 L 14.023 21.958 L 14.149 22.095 L 15.645 25.028 L 17.482 27.84 L 17.519 27.918 L 17.551 27.949 L 19.55 31.12 L 21.4 33.868 L 23.599 36.695 L 23.668 36.822 L 23.742 36.885 L 25.633 39.496 L 27.788 41.815 L 27.841 41.899 L 27.911 41.952 L 29.83 44.133 L 32.045 46.229 L 32.049 46.236 L 32.057 46.241 L 34.198 48.28 L 35.744 49.672 L 37.524 50.723 L 37.623 50.823 L 37.861 50.939 L 39.284 51.912 L 40.779 52.523 L 40.785 52.527 L 41.947 52.994 L 42.763 53.134 L 43.841 53.152 L 44.986 53.135 L 45.467 53.046 L 46.158 52.72 L 47.644 51.883 L 47.68 51.874 L 47.704 51.85 L 48.573 51.367 L 49.286 50.777 L 51.441 48.144 L 53.205 45.832 L 54.749 44.555 L 56.764 44.078 L 58.51 44.431 L 59.936 45.392 L 60.897 46.818 L 61.25 48.565 L 60.948 50.183 L 59.861 52.997 L 59.724 53.17 L 59.658 53.441 L 57.812 57.027 L 57.811 57.029 L 56.93 58.766 L 56.784 58.923 L 56.557 59.387 L 55.682 60.661 L 54.852 61.4 L 54.134 62.205 L 52.524 63.317 L 52.274 63.441 L 52.173 63.544 L 50.671 64.447 L 49.131 65.12 L 49.12 65.122 L 47.417 65.61 L 46.663 65.718 L 46.276 65.833 L 44.525 66.015 L 43.969 66.044 L 43.94 66.05 L 42.264 66.078 L 42.152 66.079 L 41.23 66.013 L 39.193 65.72 L 38.538 65.498 L 37.874 65.378 L 35.929 64.651 L 35.901 64.636 L 35.885 64.633 L 33.732 63.793 L 33.114 63.432 L 32.463 63.114 L 30.64 61.867 L 28.49 60.597 L 28.179 60.282 L 27.471 59.844 L 25.362 57.946 L 25.312 57.878 L 25.233 57.826 L 23.023 55.721 L 23.01 55.703 L 22.99 55.69 L 20.583 53.363 L 20.402 53.102 L 20.172 52.927 L 18.141 50.566 L 15.806 48.002 L 15.546 47.586 L 15.294 47.364 L 13.243 44.453 L 11.035 41.472 L 10.895 41.204 L 10.77 41.086 L 8.826 38.039 L 8.764 37.902 L 8.71 37.85 L 6.77 34.596 L 6.769 34.593 L 4.86 31.486 L 4.688 31.102 L 4.487 30.79 L 3.035 27.627 L 2.749 27.081 L 2.548 27.339 L 1.224 29.1 L 1.152 29.16 L 1.088 29.273 L -0.287 30.966 L -0.66 31.26 L -0.965 31.677 L -2.363 32.936 L -3.423 34.24 L -3.66 34.427 L -3.858 34.721 L -5.54 36.403 L -5.865 36.622 L -6.069 36.876 L -7.748 38.221 L -7.927 38.322 L -8.018 38.426 L -9.585 39.557 L -9.988 39.763 L -10.144 39.919 L -11.798 40.876 L -13.199 41.794 L -13.416 41.897 L -13.499 41.98 L -14.973 42.842 L -16.399 43.768 L -16.566 43.846 L -16.63 43.911 L -17.981 44.716 L -18.283 44.8 L -19.131 45.258 L -20.441 45.723 L -21.125 46.072 L -21.532 46.171 L -22.389 46.558 L -23.63 46.886 L -24.326 46.978 L -24.637 47.069 L -25.881 47.191 L -25.89 47.191 L -27.014 47.307 L -27.646 47.34 L -27.646 47.34 L -29.855 46.913 L -29.949 46.875 L -29.952 46.875 L -29.954 46.874 L -30.193 46.778 L -30.773 46.654 L -30.971 46.573 L -31.22 46.535 L -32.182 46.078 L -32.543 45.93 L -32.602 45.878 L -32.682 45.84 L -33.48 45.311 L -33.585 45.196 L -33.806 45.075 L -34.595 44.459 L -34.833 44.167 L -35.195 43.912 L -36.009 43.05 L -36.824 41.786 L -37.002 41.58 L -37.38 40.76 L -37.466 40.37 L -37.731 39.757 L -37.999 38.669 L -38.374 37.359 L -38.404 37.152 L -38.463 37.006 L -38.776 35.595 L -38.781 35.55 L -38.79 35.529 L -39.208 33.593 L -39.286 32.882 L -39.331 32.704 L -39.441 30.834 L -39.444 30.746 L -39.446 30.736 L -39.552 28.336 L -39.558 28.067 L -39.558 28.025 L -39.54 25.499 L -39.539 25.493 L -39.532 25.243 L -39.408 22.806 L -39.402 22.78 L -39.394 22.608 L -39.164 19.949 L -39.163 19.947 L -38.925 17.295 L -38.925 17.293 L -38.664 14.441 L -38.647 14.381 L -38.633 14.178 L -38.263 11.509 L -38.189 11.288 L -38.14 10.885 L -37.549 8.516 L -37.547 8.511 L -36.959 6.114 L -36.905 5.99 L -36.884 5.848 L -36.241 3.701 L -36.183 3.583 L -36.165 3.473 L -35.415 1.326 L -35.225 0.975 L -35.174 0.75 L -34.211 -1.286 L -34.176 -1.339 L -34.169 -1.369 L -33.206 -3.297 L -32.95 -3.576 L -32.439 -4.465 L -31.239 -5.918 L -31.159 -5.981 L -31.094 -6.087 L -29.903 -7.424 L -28.829 -8.641 L -28.719 -8.722 L -28.635 -8.849 L -27.546 -9.971 L -26.854 -10.449 L -26.491 -10.839 L -25.556 -11.449 L -24.718 -12.129 L -24.592 -12.2 L -24.478 -12.315 L -23.567 -12.782 L -22.97 -13.121 L -22.874 -13.138 L -22.788 -13.182 L -22.063 -13.42 L -21.249 -13.805 L -21.044 -13.852 L -20.75 -14.015 L -19.602 -14.442 L -18.787 -14.591 L -18.097 -14.79 L -17.059 -14.889 L -16.049 -15.069 L -15.032 -15.162 L -14.681 -15.151 L -13.508 -15.077 L -12.669 -15.051 L -11.538 -15.109 L -11.248 -15.117 L -10.607 -15.079 L -9.429 -14.94 L -9.426 -14.939 L -8.357 -14.808 L -8.25 -14.774 L -8 -14.75 L -7.356 -14.624 L -6.604 -14.566 L -6.494 -14.536 L -6.104 -14.502 L -5.016 -14.312 L -4.798 -14.231 L -4.797 -14.272 L -4.673 -15.971 L -4.654 -16.04 L -4.634 -16.325 L -4.42 -17.826 L -4.41 -17.856 L -4.404 -17.921 L -4.189 -19.214 L -4.171 -19.264 L -4.163 -19.354 L -3.946 -20.441 L -3.392 -21.849 L -3.343 -22.033 L -2.922 -22.771 L -2.765 -23.058 L -2.594 -23.233 L -2.069 -24.078 L -1.956 -24.164 L -1.883 -24.273 L -1.324 -24.65 L -0.899 -24.976 L -0.8 -25.078 L -0.748 -25.092 L -0.509 -25.276 L -0.307 -25.335 L -0.139 -25.449 L 0.55 -25.588 L 1.447 -25.853 L 1.736 -25.882 L 2.313 -25.912 Z M -12.028 -4.115 L -12.41 -4.095 L -12.446 -4.087 L -13.514 -4.054 L -13.975 -4.025 L -14.501 -3.854 L -14.753 -3.813 L -14.963 -3.723 L -15.463 -3.603 L -15.765 -3.438 L -16.697 -2.856 L -17.17 -2.641 L -17.308 -2.519 L -17.398 -2.477 L -17.667 -2.208 L -17.958 -2.012 L -18.141 -1.782 L -18.805 -1.245 L -19.367 -0.584 L -20.314 0.622 L -20.333 0.637 L -20.347 0.663 L -21.401 1.975 L -22.112 2.927 L -22.798 4.3 L -23.551 5.892 L -24.134 7.562 L -24.712 9.493 L -25.352 11.817 L -25.369 11.852 L -25.373 11.884 L -25.959 13.866 L -26.346 16.007 L -26.697 18.7 L -26.706 18.726 L -26.71 18.785 L -27.108 21.436 L -27.11 21.44 L -27.497 23.971 L -27.764 26.14 L -27.938 28.424 L -28.04 30.748 L -28.042 30.757 L -28.044 30.818 L -28.128 32.257 L -27.972 33.797 L -27.963 33.979 L -27.954 34.011 L -27.894 34.918 L -27.776 35.33 L -27.09 35.166 L -26.938 35.104 L -26.527 34.817 L -25.856 34.482 L -25.227 34.115 L -24.11 33.671 L -23.339 33.18 L -21.901 32.195 L -21.704 32.098 L -21.623 32.014 L -20.164 31.114 L -18.747 30.152 L -18.512 30.037 L -18.419 29.942 L -16.914 29.04 L -15.733 28.16 L -14.424 27.08 L -13.196 25.852 L -12.03 24.416 L -11.601 24.077 L -11.254 23.618 L -9.878 22.428 L -8.906 21.232 L -7.562 19.502 L -7.561 19.501 L -6.411 18.023 L -5.482 16.332 L -5.443 16.292 L -5.43 16.242 L -4.257 14.215 L -4.184 14.142 L -4.1 13.962 L -3.093 12.414 L -2.815 11.781 L -3.047 10.918 L -3.088 10.607 L -3.16 10.414 L -3.733 7.287 L -3.756 7.039 L -3.786 6.945 L -4.149 4.129 L -4.164 3.889 L -4.18 3.833 L -4.201 3.57 L -4.529 3.084 L -4.804 2.794 L -4.816 2.769 L -4.891 2.691 L -5.078 2.353 L -5.113 2.218 L -5.143 2.173 L -5.182 1.98 L -5.461 1.38 L -5.485 1.34 L -5.525 1.245 L -5.59 1.104 L -5.689 0.754 L -5.776 0.127 L -6.023 -0.889 L -6.046 -1.401 L -6.053 -1.682 L -6.053 -2.066 L -6.102 -2.152 L -6.119 -2.195 L -6.392 -2.553 L -7.248 -3.154 L -7.465 -3.383 L -7.757 -3.598 L -7.758 -3.599 L -8.01 -3.785 L -8.78 -3.879 L -8.988 -3.945 L -9.398 -3.995 L -9.906 -4.121 L -10.489 -4.166 L -11.14 -4.207 Z "/>
      </g>
      <g transform="matrix(1, 0, 0, 1, 403.625, 12.75)">
        <path fill-mode="evenodd" fill="rgb(0.784313725490196%, 64.7058823529412%, 33.7254901960784%)" d="M 24.157 -32.309 L 24.352 -32.177 L 24.53 -32.135 L 25.407 -31.698 L 25.818 -31.413 L 26.182 -31.231 L 27.254 -30.482 L 27.698 -29.977 L 28.385 -29.462 L 29.115 -28.628 L 29.163 -28.549 L 29.221 -28.503 L 30.264 -27.252 L 30.342 -27.118 L 30.43 -27.046 L 31.469 -25.695 L 32.489 -24.404 L 32.746 -23.941 L 33.273 -23.14 L 34.097 -21.392 L 34.098 -21.385 L 35.132 -19.254 L 35.171 -19.087 L 35.313 -18.847 L 36.148 -16.811 L 37.031 -15.135 L 37.063 -15.006 L 37.194 -14.806 L 38.244 -12.54 L 38.245 -12.534 L 39.467 -9.992 L 39.49 -9.893 L 39.573 -9.76 L 40.713 -7.173 L 40.74 -7.046 L 40.83 -6.891 L 41.887 -4.204 L 43.1 -1.781 L 43.137 -1.626 L 43.277 -1.398 L 44.522 1.503 L 44.524 1.511 L 45.786 4.394 L 45.827 4.584 L 45.958 4.823 L 46.981 7.638 L 48.15 10.423 L 49.474 13.264 L 49.501 13.385 L 49.597 13.544 L 50.89 16.635 L 50.894 16.658 L 50.905 16.675 L 52.199 19.764 L 52.2 19.771 L 53.572 22.904 L 53.603 23.053 L 53.706 23.234 L 54.893 26.324 L 54.932 26.533 L 55.043 26.753 L 55.95 29.616 L 57.117 32.411 L 57.14 32.521 L 57.209 32.641 L 58.395 35.73 L 58.403 35.774 L 58.424 35.812 L 59.594 38.906 L 59.643 39.171 L 59.774 39.444 L 60.55 42.071 L 61.583 44.634 L 61.619 44.82 L 61.728 45.024 L 62.683 47.805 L 62.739 48.134 L 62.869 48.431 L 63.523 51.041 L 64.329 53.275 L 64.356 53.429 L 64.429 53.575 L 65.151 55.837 L 65.166 55.929 L 65.2 55.999 L 65.731 57.766 L 67.276 57.409 L 67.492 57.453 L 67.527 57.446 L 67.311 57.409 L 67.725 57.412 L 69.22 57.663 L 69.392 57.754 L 69.531 57.782 L 69.833 57.986 L 70.502 58.338 L 70.849 58.595 L 70.328 58.32 L 71.029 58.792 L 71.089 58.881 L 71.502 59.16 L 72.783 61.06 L 73.253 63.386 L 72.941 65.292 L 72.514 66.565 L 72.509 66.575 L 72.28 67.244 L 72.106 67.923 L 72.084 67.973 L 72.075 68.037 L 71.385 69.628 L 70.905 70.431 L 70.298 71.024 L 69.396 72.162 L 68.822 72.628 L 68.097 73.04 L 67.827 73.302 L 67.37 73.556 L 67.049 73.64 L 67.023 73.65 L 66.854 73.747 L 66.718 73.771 L 66.58 73.825 L 66.389 73.954 L 66.11 74.01 L 65.388 74.294 L 65.13 74.348 L 63.702 74.496 L 61.408 74.104 L 60.826 73.901 L 60.575 73.765 L 60.394 73.726 L 59.92 73.52 L 58.711 72.758 L 58.361 72.558 L 57.598 71.936 L 57.437 71.732 L 56.992 71.377 L 55.888 69.868 L 55.638 69.409 L 55.122 68.574 L 54.999 68.301 L 54.834 68.066 L 54.208 66.85 L 54.169 66.691 L 54.014 66.446 L 53.384 65.027 L 53.34 64.823 L 53.196 64.563 L 52.476 62.614 L 52.434 62.383 L 52.322 62.154 L 51.705 60.101 L 51.703 60.092 L 51.016 57.937 L 50.145 55.522 L 50.079 55.152 L 49.923 54.795 L 49.239 52.067 L 48.445 49.618 L 47.406 46.914 L 47.343 46.581 L 47.179 46.226 L 46.423 43.501 L 45.403 40.64 L 45.395 40.593 L 45.376 40.557 L 44.281 37.435 L 44.281 37.435 L 43.136 34.452 L 43.079 34.147 L 42.926 33.824 L 42.076 30.832 L 41.079 27.99 L 39.848 24.929 L 39.833 24.854 L 39.79 24.778 L 38.594 21.65 L 38.589 21.625 L 38.58 21.609 L 37.401 18.533 L 36.164 15.667 L 36.148 15.591 L 36.097 15.506 L 34.867 12.495 L 34.834 12.332 L 34.736 12.149 L 33.754 9.362 L 32.615 6.652 L 32.614 6.644 L 31.421 3.866 L 30.167 1.36 L 30.115 1.139 L 29.915 0.794 L 28.792 -2.061 L 27.727 -4.476 L 26.547 -6.932 L 26.527 -7.019 L 26.454 -7.134 L 25.496 -9.279 L 24.568 -11.039 L 24.513 -11.26 L 24.289 -11.637 L 23.392 -13.826 L 22.451 -15.831 L 22.448 -15.847 L 22.44 -15.859 L 21.876 -17.054 L 21.82 -17.129 L 21.693 -16.724 L 21.677 -16.694 L 21.674 -16.672 L 20.924 -14.419 L 20.883 -14.341 L 20.871 -14.275 L 19.994 -11.888 L 19.286 -9.584 L 18.637 -6.63 L 18.024 -3.458 L 17.919 -3.187 L 17.868 -2.842 L 16.926 0.255 L 16.246 3.562 L 16.245 3.564 L 15.539 7.181 L 15.531 7.202 L 15.528 7.227 L 14.721 11.075 L 14.069 14.677 L 14.068 14.679 L 13.408 18.518 L 13.39 18.567 L 13.382 18.652 L 12.595 22.597 L 12.565 22.675 L 12.551 22.789 L 11.666 26.53 L 10.951 30.005 L 10.863 30.226 L 10.823 30.508 L 9.866 33.767 L 9.334 36.608 L 8.937 39.692 L 8.909 39.779 L 8.891 39.982 L 8.295 43.326 L 7.814 46.404 L 7.809 46.417 L 7.808 46.434 L 7.309 49.424 L 7.287 49.487 L 7.275 49.599 L 6.766 52.152 L 6.39 54.415 L 6.091 56.811 L 6.086 56.825 L 6.062 57.604 L 6.026 57.759 L 5.921 58.733 L 5.751 59.514 L 5.714 60.131 L 5.694 60.211 L 5.667 60.617 L 5.589 61.199 L 5.589 61.213 L 5.517 62.521 L 5.517 62.545 L 5.483 63.23 L 5.412 63.943 L 5.412 64.332 L 5.355 65.212 L 5.285 65.763 L 4.959 66.769 L 4.809 67.511 L 4.634 67.771 L 4.529 68.095 L 3.786 69.028 L 3.348 69.678 L 3.179 69.792 L 3.037 69.97 L 1.797 70.724 L 1.182 71.139 L 1.081 71.159 L 0.98 71.22 L -1.472 71.674 L -3.924 71.22 L -4.024 71.159 L -4.125 71.139 L -4.74 70.724 L -5.981 69.97 L -6.122 69.792 L -6.292 69.678 L -6.729 69.028 L -7.472 68.095 L -7.575 67.774 L -7.752 67.511 L -7.909 66.733 L -8.232 65.729 L -8.295 65.247 L -8.355 64.332 L -8.355 63.596 L -8.321 62.912 L -8.25 62.199 L -8.25 61.284 L -8.19 60.374 L -8.013 59.041 L -7.922 57.497 L -7.893 57.383 L -7.85 56.847 L -7.549 54.933 L -7.247 52.512 L -7.225 52.441 L -7.21 52.268 L -6.784 49.705 L -6.761 49.641 L -6.75 49.527 L -6.217 46.855 L -6.216 46.853 L -5.671 43.985 L -5.142 40.984 L -5.087 39.512 L -5.087 36.896 L -5.082 36.647 L -4.982 34.142 L -4.982 31.761 L -5.082 29.159 L -5.087 28.907 L -5.087 24.011 L -5.185 21.966 L -5.193 21.654 L -5.192 21.605 L -5.179 19.944 L -5.353 18.205 L -5.552 16.525 L -5.597 15.768 L -5.597 15.768 L -5.596 15.657 L -5.566 13.961 L -5.628 12.592 L -5.629 12.55 L -5.63 12.546 L -5.689 11.076 L -5.826 9.84 L -5.833 9.714 L -5.842 9.685 L -5.944 8.543 L -5.969 7.989 L -5.969 7.982 L -5.968 6.732 L -5.97 5.797 L -5.97 5.781 L -5.949 5.295 L -5.936 5.13 L -6.091 3.889 L -6.091 2.418 L -6.088 2.222 L -6.066 1.583 L -5.995 1.279 L -5.829 0.149 L -5.63 -0.279 L -5.568 -0.544 L -5.389 -0.798 L -5.367 -0.845 L -5.359 -0.895 L -5.222 -1.158 L -5.166 -1.279 L -5.129 -1.336 L -5.076 -1.438 L -4.648 -2.618 L -3.499 -3.996 L -1.945 -4.911 L -0.105 -5.242 L 1.734 -4.911 L 3.289 -3.996 L 4.284 -2.802 L 4.368 -3.011 L 4.421 -3.352 L 5.381 -6.351 L 5.943 -9.262 L 5.972 -9.336 L 5.985 -9.45 L 6.747 -12.749 L 6.825 -12.933 L 6.858 -13.148 L 7.711 -15.927 L 7.807 -16.119 L 7.838 -16.285 L 8.759 -18.704 L 9.453 -20.79 L 10.053 -22.695 L 10.204 -22.992 L 10.25 -23.218 L 11.018 -25.04 L 11.144 -25.244 L 11.173 -25.371 L 11.926 -26.879 L 12.418 -27.587 L 12.639 -27.983 L 13.49 -29.047 L 13.915 -29.387 L 14.267 -29.857 L 15.101 -30.586 L 15.431 -30.786 L 15.605 -30.986 L 16.322 -31.498 L 16.698 -31.69 L 16.967 -31.908 L 17.427 -32.062 L 18.07 -32.389 L 18.711 -32.491 L 19.168 -32.644 L 19.869 -32.745 L 20.813 -32.814 L 21.654 -32.814 Z "/>
      </g>
      <g transform="matrix(1, 0, 0, 1, 480.5, -98.5)">
        <path fill-mode="evenodd" fill="rgb(0.784313725490196%, 64.7058823529412%, 33.7254901960784%)" d="M 1.912 -4.527 L 3.474 -3.474 L 4.527 -1.912 L 4.913 0 L 4.693 1.089 L 4.699 1.117 L 4.882 1.542 L 5.026 2.126 L 5.041 2.254 L 5.071 2.328 L 5.186 2.878 L 5.334 3.393 L 5.408 3.908 L 5.501 4.2 L 5.553 4.614 L 5.734 5.216 L 6.003 6.018 L 6.044 6.268 L 6.136 6.483 L 6.352 7.385 L 6.644 7.976 L 6.734 8.359 L 7.063 9.152 L 7.412 10.684 L 7.413 10.691 L 7.749 12.066 L 7.749 12.066 L 8.156 13.553 L 8.772 15.292 L 8.851 15.744 L 9.004 16.152 L 9.381 18.197 L 9.809 20.197 L 10.439 22.343 L 10.47 22.552 L 10.534 22.704 L 11.127 25.276 L 11.132 25.321 L 11.141 25.342 L 11.839 28.439 L 11.853 28.56 L 11.877 28.624 L 12.472 31.62 L 12.512 32.016 L 12.555 32.16 L 12.917 35.469 L 13.473 38.83 L 13.473 38.835 L 14.145 42.497 L 14.161 42.673 L 14.185 42.744 L 14.766 46.692 L 15.441 50.643 L 15.443 50.67 L 15.446 50.677 L 16.139 54.727 L 16.147 54.824 L 16.16 54.861 L 16.854 59.334 L 16.855 59.347 L 16.856 59.348 L 17.55 63.715 L 17.559 63.826 L 17.572 63.865 L 18.245 68.66 L 18.255 68.797 L 18.268 68.839 L 18.815 73.497 L 19.658 78.306 L 19.677 78.526 L 19.704 78.608 L 20.372 83.614 L 20.372 83.618 L 21.115 88.544 L 21.143 88.908 L 21.169 89.003 L 21.598 94.036 L 22.226 99.124 L 22.234 99.242 L 22.243 99.273 L 22.784 104.392 L 22.785 104.413 L 22.786 104.416 L 23.307 109.311 L 23.922 114.125 L 23.946 114.487 L 23.965 114.558 L 24.27 119.13 L 24.773 123.452 L 24.773 123.456 L 25.326 127.654 L 25.352 128.042 L 25.373 128.12 L 25.608 131.683 L 26.034 134.889 L 26.056 135.206 L 26.076 135.279 L 26.301 138.121 L 26.767 140.819 L 26.814 141.355 L 26.852 141.493 L 27.036 143.878 L 27.349 145.595 L 27.794 147.281 L 27.833 147.577 L 27.904 147.761 L 28.286 149.721 L 28.304 149.905 L 28.332 149.985 L 28.598 151.635 L 28.598 151.647 L 28.856 153.157 L 29.087 154.346 L 29.291 155.239 L 29.292 155.245 L 29.499 156.08 L 29.515 156.207 L 29.545 156.281 L 29.724 157.086 L 29.866 157.535 L 30.007 158.442 L 30.144 158.929 L 30.198 159.559 L 30.221 160.095 L 29.782 162.358 L 29.747 162.445 L 29.746 162.448 L 29.745 162.45 L 29.682 162.607 L 29.652 162.762 L 29.626 162.803 L 29.617 162.846 L 29.29 163.332 L 28.743 164.249 L 28.646 164.338 L 28.577 164.446 L 28.48 164.551 L 28.458 164.566 L 28.45 164.578 L 28.282 164.691 L 28.193 164.754 L 27.518 165.374 L 26.897 165.675 L 26.608 165.881 L 26.371 165.931 L 26.004 166.108 L 24.282 166.37 L 22.044 165.919 L 22.036 165.913 L 22.026 165.911 L 21.426 165.502 L 20.216 164.686 L 20.205 164.67 L 20.189 164.658 L 20.01 164.477 L 19.658 164.163 L 18.768 162.955 L 18.348 162.521 L 17.978 161.857 L 17.905 161.578 L 17.582 161.01 L 17.218 160.062 L 16.906 159.329 L 16.878 159.194 L 16.789 159.036 L 16.419 158.057 L 16.359 157.732 L 16.205 157.395 L 15.853 156.088 L 15.831 155.922 L 15.786 155.814 L 15.433 154.293 L 15.422 154.199 L 15.402 154.149 L 15.051 152.522 L 15.05 152.51 L 14.624 150.639 L 14.148 148.837 L 14.102 148.488 L 14.023 148.276 L 13.609 146.005 L 13.556 145.425 L 13.513 145.269 L 13.327 142.852 L 12.862 140.162 L 12.801 139.469 L 12.767 139.333 L 12.606 136.362 L 12.248 133.107 L 12.226 132.701 L 12.212 132.646 L 12.051 129.082 L 11.595 125.021 L 11.594 125.01 L 11.073 120.527 L 11.055 120.228 L 11.04 120.171 L 10.737 115.637 L 10.136 110.932 L 10.127 110.797 L 10.116 110.761 L 9.593 105.85 L 9.59 105.784 L 9.585 105.769 L 9.08 100.65 L 8.48 95.507 L 8.466 95.275 L 8.453 95.226 L 8.065 90.273 L 7.386 85.466 L 7.376 85.32 L 7.362 85.275 L 6.786 80.344 L 6.014 75.474 L 5.989 75.161 L 5.961 75.068 L 5.481 70.272 L 4.911 65.548 L 4.91 65.538 L 4.354 61.166 L 4.351 61.126 L 4.348 61.116 L 3.789 56.618 L 3.789 56.611 L 3.238 52.588 L 3.236 52.564 L 3.234 52.559 L 2.674 48.482 L 2.665 48.36 L 2.654 48.324 L 2.199 44.408 L 1.65 40.764 L 1.641 40.646 L 1.629 40.607 L 1.169 37.055 L 1.15 36.758 L 1.133 36.695 L 0.896 33.434 L 0.485 30.644 L -0.046 27.615 L -0.05 27.569 L -0.056 27.553 L -0.482 25.057 L -0.994 22.827 L -1.029 22.526 L -1.079 22.377 L -1.426 20.085 L -1.438 19.92 L -1.454 19.868 L -1.651 18.179 L -2.089 16.61 L -2.126 16.349 L -2.193 16.175 L -2.544 14.41 L -2.55 14.343 L -2.561 14.313 L -2.831 12.867 L -2.837 12.8 L -2.847 12.773 L -3.022 11.765 L -3.273 11.165 L -3.367 10.703 L -3.594 10.106 L -3.811 8.965 L -4.006 8.383 L -4.022 8.283 L -4.063 8.199 L -4.369 7.184 L -4.45 6.641 L -4.555 6.311 L -4.611 5.865 L -4.704 5.542 L -4.808 4.815 L -4.894 4.499 L -4.951 3.777 L -4.951 3.777 L -4.968 3.593 L -5.025 3.371 L -5.026 3.362 L -5.184 2.772 L -5.357 1.472 L -5.357 0.736 L -4.969 -1.186 L -4.868 -1.336 L -4.836 -1.472 L -4.613 -1.92 L -4.444 -2.104 L -4.138 -2.674 L -3.901 -2.987 L -3.677 -3.172 L -3.474 -3.474 L -2.615 -4.053 L -2.21 -4.389 L -2.066 -4.423 L -1.912 -4.527 L 0 -4.913 Z "/>
      </g>
      <g transform="matrix(1, 0, 0, 1, 546.25, -96.125)">
        <path fill-mode="evenodd" fill="rgb(0.784313725490196%, 64.7058823529412%, 33.7254901960784%)" d="M 1.951 -4.725 L 2.374 -4.44 L 2.653 -4.36 L 2.909 -4.079 L 3.545 -3.65 L 3.985 -2.998 L 4.008 -2.98 L 4.436 -2.473 L 4.587 -2.216 L 4.811 -1.972 L 5.047 -1.433 L 5.328 -0.955 L 5.378 -0.677 L 5.499 -0.402 L 5.596 -0.017 L 5.624 0.209 L 5.638 0.268 L 5.69 0.339 L 6.17 2.245 L 6.22 3.174 L 6.22 3.178 L 6.275 4.083 L 6.275 4.084 L 6.331 4.866 L 6.345 5.256 L 6.277 6.102 L 6.076 7.345 L 6.046 8.366 L 5.98 8.655 L 5.807 9.801 L 5.335 11.331 L 5.315 11.37 L 5.31 11.403 L 4.983 12.387 L 4.801 13.474 L 4.454 14.432 L 4.349 14.902 L 3.493 16.723 L 3.491 16.726 L 2.745 18.313 L 2.071 20.05 L 2.035 20.112 L 2.026 20.156 L 1.171 22.19 L 1.074 22.306 L 1.032 22.486 L -0.034 24.62 L -0.037 24.623 L -1.085 26.722 L -1.107 26.746 L -1.115 26.777 L -2.248 28.951 L -3.205 31.347 L -3.316 31.534 L -3.343 31.655 L -4.619 34.316 L -4.657 34.358 L -4.671 34.417 L -5.975 36.96 L -7.076 39.363 L -8.239 42.03 L -9.318 44.791 L -9.323 44.8 L -10.546 47.885 L -10.635 48.036 L -10.657 48.138 L -11.943 50.923 L -13.221 53.993 L -14.405 56.98 L -14.407 56.983 L -15.583 60.052 L -16.771 63.353 L -16.824 63.45 L -16.838 63.525 L -18.117 66.696 L -19.262 69.969 L -19.263 69.973 L -20.423 73.405 L -20.425 73.409 L -21.585 76.951 L -21.617 77.011 L -21.626 77.062 L -22.926 80.709 L -22.928 80.712 L -24.132 84.196 L -25.259 87.683 L -25.268 87.701 L -25.269 87.71 L -26.524 91.441 L -26.57 91.529 L -26.583 91.602 L -27.396 93.771 L -26.675 93.796 L -26.525 93.831 L -25.614 93.925 L -23.383 94.386 L -21.467 94.653 L -21.206 94.74 L -20.754 94.799 L -18.391 95.419 L -17.898 95.644 L -17.536 95.718 L -15.287 96.68 L -15.279 96.685 L -12.874 97.707 L -12.604 97.874 L -12.449 97.913 L -10.207 99.086 L -10.205 99.087 L -8.035 100.201 L -7.956 100.275 L -7.734 100.369 L -5.392 101.752 L -5.346 101.799 L -5.238 101.849 L -3.097 103.211 L -3.088 103.221 L -3.071 103.229 L -0.944 104.61 L -0.868 104.692 L -0.705 104.776 L 1.325 106.241 L 1.5 106.445 L 1.822 106.642 L 3.534 108.164 L 5.261 109.484 L 5.321 109.557 L 5.431 109.62 L 7.229 111.101 L 7.254 111.133 L 7.297 111.158 L 8.896 112.517 L 8.927 112.557 L 8.978 112.589 L 10.772 114.171 L 10.788 114.193 L 10.814 114.209 L 12.036 115.309 L 13.127 115.982 L 13.268 116.129 L 13.587 116.299 L 14.988 117.349 L 15.937 117.97 L 16.874 118.48 L 17.655 118.872 L 18.181 119.04 L 18.68 119.17 L 19.166 119.221 L 19.184 119.226 L 19.233 119.229 L 19.692 119.284 L 19.928 119.283 L 20.544 119.211 L 20.935 119.188 L 21.743 118.834 L 22.5 118.643 L 23.757 118.485 L 25.714 118.88 L 27.313 119.958 L 28.391 121.556 L 28.786 123.514 L 28.398 125.454 L 27.339 127.043 L 27.012 127.376 L 26.553 127.985 L 24.66 129.566 L 24.605 129.579 L 24.572 129.609 L 23.91 129.93 L 23.291 130.292 L 23.086 130.347 L 21.559 130.971 L 20.675 131.167 L 20.244 131.215 L 20.062 131.272 L 19.263 131.369 L 19.164 131.375 L 19.139 131.383 L 18.231 131.479 L 17.555 131.515 L 16.919 131.482 L 15.726 131.36 L 15.512 131.296 L 15.002 131.239 L 13.791 130.965 L 13.212 130.722 L 12.777 130.634 L 11.349 130.035 L 11.267 129.984 L 11.212 129.972 L 9.891 129.37 L 9.554 129.151 L 9.387 129.107 L 7.967 128.288 L 7.821 128.142 L 7.461 127.959 L 6.119 126.998 L 4.767 126.211 L 4.496 125.938 L 3.852 125.559 L 2.141 124.104 L 2.11 124.064 L 2.059 124.032 L 0.265 122.45 L 0.265 122.449 L -1.211 121.146 L -2.865 119.784 L -4.702 118.331 L -4.802 118.207 L -4.976 118.1 L -6.667 116.597 L -8.261 115.399 L -10.198 114.14 L -10.208 114.13 L -10.225 114.122 L -12.182 112.824 L -14.235 111.612 L -16.328 110.496 L -16.329 110.494 L -18.283 109.472 L -20.528 108.477 L -20.529 108.476 L -22.242 107.744 L -23.788 107.308 L -25.545 107.027 L -25.678 106.98 L -25.914 106.953 L -27.822 106.52 L -29.312 106.431 L -30.931 106.431 L -32.314 106.557 L -32.626 107.338 L -32.629 107.343 L -33.554 109.711 L -33.766 110.074 L -33.816 110.279 L -34.87 112.319 L -34.989 112.446 L -35.156 112.807 L -36.084 114.252 L -36.838 115.478 L -37.408 116.47 L -37.889 116.951 L -38.687 118.034 L -39.037 118.347 L -39.345 118.721 L -39.65 118.96 L -40.557 119.856 L -41.213 120.184 L -41.543 120.443 L -41.885 120.521 L -42.412 120.785 L -42.553 120.829 L -42.603 120.856 L -42.604 120.856 L -42.605 120.857 L -44.869 121.592 L -45.778 121.713 L -46.288 121.747 L -46.364 121.766 L -46.769 121.785 L -47.093 121.793 L -47.974 121.734 L -48.642 121.644 L -49.253 121.442 L -49.948 121.322 L -50.932 120.971 L -51.23 120.807 L -51.43 120.763 L -51.984 120.509 L -53.51 119.509 L -53.545 119.468 L -53.58 119.447 L -54.165 118.921 L -54.645 118.497 L -54.87 118.196 L -55.177 117.971 L -55.554 117.551 L -56.026 117.037 L -56.26 116.665 L -56.498 116.461 L -56.88 115.934 L -57.176 115.361 L -57.363 115.164 L -57.634 114.657 L -57.674 114.498 L -57.838 114.239 L -58.111 113.636 L -58.23 113.084 L -58.262 113.038 L -58.283 112.93 L -58.583 112.117 L -58.653 111.73 L -58.757 110.584 L -58.747 110.229 L -58.717 109.688 L -58.593 109.202 L -58.593 109.007 L -58.448 108.294 L -58.422 108.125 L -58.402 108.062 L -58.102 106.577 L -57.051 105.019 L -56.953 104.822 L -56.822 104.678 L -56.764 104.593 L -56.68 104.508 L -56.556 104.356 L -55.804 103.24 L -55.383 102.819 L -55.221 102.71 L -55.114 102.566 L -54.507 102.027 L -54.025 101.732 L -53.79 101.476 L -53.118 101.033 L -52.571 100.622 L -52.488 100.578 L -52.448 100.531 L -51.424 99.795 L -51.337 99.75 L -51.297 99.706 L -50.381 99.076 L -50.333 99.053 L -50.297 99.019 L -49.92 98.849 L -48.698 98.247 L -48.524 98.22 L -48.386 98.159 L -47.585 97.947 L -46.809 97.612 L -46.662 97.581 L -46.487 97.483 L -44.849 96.867 L -44.716 96.842 L -44.583 96.774 L -43.051 96.261 L -43.044 96.26 L -41.918 95.862 L -41.088 93.714 L -41.085 93.708 L -39.826 90.393 L -39.823 90.386 L -38.594 87.107 L -37.362 83.573 L -36.236 80.085 L -36.193 80.003 L -36.181 79.933 L -34.883 76.323 L -34.819 76.207 L -34.802 76.118 L -33.368 72.6 L -32.061 69.14 L -32.054 69.129 L -32.054 69.127 L -30.701 65.647 L -30.694 65.636 L -30.694 65.634 L -29.344 62.26 L -29.3 62.186 L -29.29 62.134 L -27.914 58.97 L -26.648 55.721 L -26.619 55.671 L -26.612 55.637 L -25.292 52.464 L -25.281 52.444 L -25.279 52.436 L -23.959 49.368 L -23.939 49.336 L -23.935 49.317 L -22.508 46.148 L -22.446 46.076 L -22.421 45.969 L -21.078 43.285 L -19.831 40.387 L -19.829 40.385 L -18.647 37.595 L -18.619 37.562 L -18.608 37.51 L -17.314 34.645 L -17.311 34.641 L -16.146 32.096 L -16.059 31.996 L -16.023 31.852 L -14.681 29.302 L -13.552 26.947 L -12.562 24.47 L -12.383 24.167 L -12.341 23.995 L -11.077 21.571 L -10.057 19.53 L -10.055 19.527 L -9.098 17.61 L -8.348 15.826 L -7.642 14.008 L -7.531 13.817 L -7.502 13.69 L -6.647 11.869 L -6.644 11.866 L -6.041 10.583 L -5.784 9.594 L -5.574 9.132 L -5.506 8.809 L -4.934 7.5 L -4.657 6.818 L -4.573 6.142 L -4.514 5.959 L -4.471 5.59 L -4.199 4.445 L -4.171 4.053 L -4.125 3.283 L -4.317 2.745 L -4.565 2.389 L -4.607 2.201 L -4.726 1.978 L -4.927 0.774 L -5.002 0.44 L -5.012 0.024 L -5.013 -0.105 L -4.619 -2.057 L -3.545 -3.65 L -1.951 -4.725 L 0 -5.119 Z "/>
      </g>
    </g>
    <g transform="matrix(1, 0, 0, 1, 559.75, 582.25)">
      <path fill-mode="evenodd" fill="rgb(0.784313725490196%, 64.7058823529412%, 33.7254901960784%)" d="M 75.516 -24.495 L 76.011 -24.389 L 76.223 -24.303 L 76.48 -24.263 L 77.268 -23.876 L 77.688 -23.705 L 77.777 -23.626 L 77.896 -23.568 L 78.34 -23.263 L 78.894 -22.641 L 79.025 -22.525 L 79.074 -22.439 L 79.911 -21.498 L 79.915 -21.481 L 79.924 -21.472 L 80.112 -21.115 L 80.66 -18.921 L 79.777 -16.19 L 79.034 -15.643 L 78.899 -15.323 L 78.702 -15.004 L 78.659 -14.834 L 78.37 -14.303 L 78.184 -13.746 L 77.946 -12.766 L 77.637 -11.107 L 77.631 -11.092 L 77.629 -11.076 L 77.211 -8.967 L 76.924 -7.09 L 76.69 -4.533 L 76.676 -4.484 L 76.665 -4.314 L 76.309 -1.561 L 75.959 1.433 L 75.944 1.481 L 75.934 1.607 L 75.505 4.493 L 75.334 7.266 L 75.307 7.372 L 75.27 7.853 L 74.763 11.153 L 74.761 11.157 L 74.271 14.401 L 74.244 14.479 L 74.229 14.635 L 73.658 17.589 L 73.372 20.547 L 73.326 20.706 L 73.283 21.152 L 72.645 24.454 L 72.642 24.461 L 72.006 27.649 L 71.953 27.784 L 71.928 27.976 L 71.182 30.862 L 71.065 31.12 L 71.022 31.373 L 70.113 33.945 L 69.425 36.309 L 69.405 36.351 L 69.399 36.387 L 68.632 38.846 L 68.509 39.089 L 68.471 39.288 L 67.614 41.435 L 67.537 41.564 L 67.518 41.654 L 66.747 43.369 L 66.581 43.626 L 66.545 43.769 L 65.564 45.581 L 65.553 45.593 L 65.55 45.605 L 64.779 46.995 L 64.431 47.352 L 63.854 48.262 L 62.889 49.302 L 62.791 49.372 L 62.721 49.476 L 61.985 50.212 L 61.417 50.595 L 61.098 50.956 L 60.067 51.678 L 60.065 51.679 L 59.382 52.168 L 58.585 52.574 L 57.834 52.995 L 57.162 53.249 L 56.454 53.565 L 56.375 53.582 L 56.3 53.632 L 53.715 54.154 L 53.174 54.154 L 52.537 54.171 L 52.349 54.174 L 51.254 54.083 L 50.584 53.972 L 49.944 53.741 L 48.307 53.512 L 47.597 53.311 L 46.934 53.139 L 46.747 53.054 L 46.553 53.023 L 45.841 52.787 L 45.213 52.631 L 43.895 52.047 L 43.562 51.959 L 42.98 51.627 L 42.69 51.483 L 42.1 51.232 L 41.907 51.111 L 41.787 51.083 L 41.118 50.75 L 40.792 50.524 L 40.17 50.227 L 39.789 50.137 L 39.586 50.036 L 39.042 49.855 L 38.483 49.561 L 37.493 49.089 L 37.378 49.012 L 37.16 48.919 L 36.653 48.604 L 36.127 48.353 L 35.472 47.917 L 35.422 47.863 L 35.318 47.81 L 34.563 47.271 L 34.408 47.092 L 34.117 46.919 L 33.501 46.392 L 32.667 45.743 L 32.614 45.679 L 32.518 45.623 L 31.648 44.901 L 31.634 44.884 L 31.61 44.87 L 30.634 44.045 L 30.534 43.915 L 30.373 43.811 L 29.707 43.184 L 28.857 42.504 L 28.388 41.918 L 27.81 41.454 L 27.203 40.695 L 26.313 39.806 L 26.106 39.499 L 25.859 39.304 L 24.923 38.16 L 24.833 38.004 L 24.736 37.922 L 23.803 36.678 L 23.681 36.45 L 23.567 36.345 L 22.663 34.985 L 22.528 34.705 L 22.422 34.598 L 21.52 33.037 L 21.52 33.035 L 20.564 31.455 L 20.563 31.453 L 19.907 30.41 L 18.909 29.204 L 18.591 28.655 L 18.344 28.416 L 17.474 26.993 L 16.348 25.574 L 15.029 23.95 L 14.909 23.739 L 14.784 23.632 L 13.431 21.759 L 13.403 21.705 L 13.375 21.68 L 12.128 19.914 L 11.971 19.603 L 11.842 19.477 L 11.064 18.184 L 10.084 17.134 L 9.962 16.943 L 9.814 16.827 L 8.587 15.345 L 8.517 15.224 L 8.439 15.159 L 7.343 13.743 L 6.27 12.537 L 6.164 12.365 L 6.041 12.266 L 5.309 11.354 L 4.512 10.606 L 4.451 10.521 L 4.361 10.46 L 3.418 9.518 L 2.876 9.024 L 2.123 8.481 L 1.918 8.242 L 1.547 8.01 L 1.258 7.745 L 0.681 7.379 L 0.54 7.229 L 0.359 7.131 L 0.316 7.115 L 0.316 7.115 L 0.316 7.115 L 0.21 7.075 L -1.458 6.128 L -1.503 6.08 L -1.505 6.079 L -1.861 5.965 L -2.292 5.744 L -2.573 5.681 L -2.894 5.434 L -3.592 5.076 L -3.996 4.673 L -4.506 4.435 L -4.619 4.336 L -4.65 4.329 L -5.078 4.14 L -5.562 3.831 L -5.76 3.775 L -5.913 3.607 L -6.487 3.241 L -7.445 2.152 L -7.534 2.058 L -7.551 2.032 L -7.575 2.004 L -7.603 1.984 L -7.847 1.717 L -8.524 0.638 L -8.888 0.098 L -8.9 0.039 L -8.936 -0.018 L -9.332 -2.102 L -8.888 -4.303 L -7.677 -6.1 L -5.88 -7.311 L -3.679 -7.756 L -1.762 -7.421 L -1.376 -7.283 L -1.151 -7.159 L -0.753 -7.013 L -0.304 -6.922 L -0.269 -6.899 L -0.216 -6.891 L 0.464 -6.697 L 0.945 -6.593 L 1.362 -6.422 L 1.763 -6.349 L 2.287 -6.041 L 2.722 -5.862 L 2.788 -5.853 L 3.589 -5.611 L 3.59 -5.611 L 3.59 -5.61 L 3.691 -5.58 L 4.009 -5.422 L 5.166 -4.902 L 5.177 -4.896 L 5.334 -4.85 L 5.358 -4.838 L 5.387 -4.834 L 7.054 -4.042 L 7.618 -3.668 L 8.513 -3.163 L 8.754 -2.926 L 9.355 -2.588 L 9.908 -2.145 L 10.776 -1.556 L 10.976 -1.333 L 11.367 -1.099 L 12.331 -0.263 L 12.464 -0.086 L 12.668 0.051 L 13.572 0.956 L 14.595 1.858 L 14.864 2.219 L 15.215 2.484 L 16.183 3.601 L 17.351 4.822 L 17.498 5.046 L 17.675 5.185 L 18.891 6.654 L 20.043 7.951 L 21.451 9.461 L 21.91 10.18 L 22.257 10.513 L 23.329 12.236 L 24.453 13.829 L 24.454 13.831 L 25.683 15.531 L 26.914 17.046 L 27.013 17.22 L 27.119 17.31 L 28.441 19.103 L 28.707 19.611 L 28.896 19.804 L 29.682 21.193 L 30.607 22.389 L 30.768 22.685 L 30.916 22.821 L 31.861 24.258 L 31.885 24.308 L 31.906 24.327 L 32.966 25.967 L 33.005 26.051 L 33.039 26.083 L 33.898 27.459 L 34.707 28.581 L 35.52 29.664 L 36.157 30.443 L 37.073 31.359 L 37.305 31.703 L 37.574 31.918 L 37.944 32.38 L 38.419 32.76 L 38.694 33.105 L 39.107 33.397 L 39.774 34.105 L 40.528 34.81 L 41.124 35.36 L 41.862 35.933 L 41.945 36.036 L 42.094 36.124 L 42.604 36.561 L 43.02 36.858 L 43.037 36.869 L 43.256 36.962 L 43.762 37.277 L 44.014 37.398 L 44.316 37.498 L 44.846 37.776 L 45.146 37.847 L 45.215 37.881 L 45.405 37.935 L 45.452 37.958 L 45.506 37.966 L 47.232 38.79 L 47.513 38.977 L 47.606 39.024 L 48.196 39.275 L 48.39 39.395 L 48.51 39.424 L 49.179 39.757 L 49.32 39.855 L 49.394 39.873 L 49.611 39.969 L 49.84 40.007 L 50.784 40.319 L 51.253 40.464 L 52.527 40.744 L 53.006 40.408 L 53.17 40.244 L 53.43 39.946 L 53.801 39.234 L 53.805 39.228 L 54.588 37.712 L 55.199 36.269 L 55.876 34.573 L 56.514 32.414 L 56.517 32.407 L 57.242 29.915 L 57.298 29.8 L 57.316 29.689 L 58.169 27.164 L 58.795 24.744 L 59.392 21.756 L 59.393 21.752 L 59.947 18.887 L 60.233 15.929 L 60.28 15.77 L 60.322 15.324 L 60.948 12.087 L 61.489 8.916 L 61.491 8.911 L 61.98 6.01 L 62.189 3.254 L 62.231 3.102 L 62.279 2.572 L 62.851 -0.531 L 63.319 -3.486 L 63.33 -3.516 L 63.335 -3.569 L 63.801 -6.194 L 64.165 -8.807 L 64.222 -8.979 L 64.26 -9.315 L 64.768 -11.547 L 64.814 -11.656 L 64.833 -11.793 L 65.451 -14.022 L 65.455 -14.031 L 65.964 -15.823 L 66.071 -16.049 L 66.108 -16.252 L 66.622 -17.631 L 66.822 -17.984 L 66.871 -18.191 L 67.499 -19.443 L 67.729 -19.693 L 68.167 -20.473 L 68.807 -21.27 L 69.25 -21.867 L 69.617 -22.178 L 69.961 -22.657 L 70.446 -23.105 L 71.548 -23.802 L 72.1 -24.174 L 72.153 -24.185 L 72.203 -24.216 L 74.319 -24.622 Z "/>
      <g transform="matrix(1, 0, 0, 1, 56.875, 49)">
        <path fill-mode="evenodd" fill="rgb(0.784313725490196%, 64.7058823529412%, 33.7254901960784%)" d="M 1.862 -4.512 L 2.084 -4.362 L 2.164 -4.341 L 2.331 -4.31 L 2.442 -4.242 L 2.541 -4.219 L 2.798 -4.177 L 2.982 -4.079 L 3.133 -4.049 L 3.477 -3.817 L 3.766 -3.664 L 3.79 -3.658 L 4.144 -3.501 L 4.431 -3.445 L 4.607 -3.374 L 4.69 -3.355 L 4.85 -3.287 L 5.047 -3.257 L 5.932 -2.831 L 6.157 -2.774 L 6.613 -2.569 L 6.949 -2.5 L 7.284 -2.268 L 7.817 -2.029 L 8.362 -1.524 L 8.38 -1.515 L 8.403 -1.492 L 8.749 -1.252 L 9.11 -0.878 L 9.284 -0.612 L 9.603 -0.294 L 9.999 0.478 L 10.162 0.727 L 10.532 1.112 L 10.743 1.494 L 10.784 1.654 L 11.393 3.357 L 11.493 3.953 L 11.524 4.318 L 11.582 4.643 L 11.774 5.286 L 11.803 5.563 L 11.824 5.702 L 11.858 6.133 L 11.882 6.226 L 11.931 6.94 L 11.931 6.941 L 11.975 7.498 L 11.995 7.989 L 11.935 8.834 L 11.9 9.078 L 11.909 9.172 L 11.914 9.281 L 11.92 9.302 L 11.999 10.325 L 12.019 10.827 L 12.018 10.97 L 11.999 11.778 L 12.042 12.565 L 12.045 12.671 L 12.048 12.681 L 12.1 14.033 L 12.106 14.296 L 12.018 15.356 L 11.969 15.65 L 11.991 16.197 L 12.062 17.49 L 12.073 17.87 L 12.072 17.996 L 12.05 19.139 L 12.12 20.577 L 12.128 20.919 L 12.106 21.47 L 12.005 22.7 L 12.032 23.909 L 12.034 24.072 L 12.027 24.397 L 11.947 26.096 L 11.931 26.159 L 11.907 26.565 L 11.774 27.694 L 11.791 28.909 L 11.792 29.013 L 11.792 30.874 L 11.81 32.837 L 11.81 32.902 L 11.81 34.977 L 11.825 36.943 L 11.826 37.002 L 11.818 37.334 L 11.712 39.558 L 11.703 39.594 L 11.692 39.84 L 11.53 41.632 L 11.53 43.414 L 11.524 43.713 L 11.445 45.564 L 11.445 47.303 L 11.39 48.175 L 11.234 49.427 L 11.234 50.877 L 11.222 51.29 L 11.129 52.874 L 11.129 54.241 L 11.059 55.235 L 10.861 56.622 L 10.79 57.262 L 10.79 58.025 L 10.693 59.19 L 10.512 60.271 L 10.388 60.61 L 10.32 61.073 L 10.123 61.732 L 10.001 62.313 L 9.391 63.82 L 9.304 64.158 L 9.045 64.627 L 9.045 64.628 L 9.044 64.628 L 9.014 64.683 L 8.579 65.129 L 8.232 65.502 L 8.115 65.724 L 7.236 66.575 L 6.821 67.022 L 6.531 67.212 L 5.145 67.863 L 5.132 67.871 L 5.123 67.873 L 4.897 67.979 L 4.865 67.984 L 4.847 67.993 L 4.552 68.081 L 2.838 68.334 L 0.544 67.871 L 0.151 67.606 L -0.141 67.527 L -0.493 67.172 L -1.33 66.608 L -1.918 65.735 L -1.97 65.683 L -2.187 65.488 L -2.239 65.411 L -2.271 65.379 L -2.324 65.288 L -2.384 65.201 L -2.781 64.39 L -3.04 64.005 L -3.09 63.759 L -3.256 63.419 L -3.568 61.389 L -3.404 60.107 L -3.389 59.732 L -3.367 59.641 L -3.323 59.029 L -3.239 58.456 L -3.222 57.91 L -3.222 56.869 L -3.204 56.377 L -3.122 55.196 L -3.097 55.105 L -3.07 54.718 L -2.93 53.738 L -2.93 52.664 L -2.918 52.251 L -2.825 50.668 L -2.825 48.985 L -2.771 48.113 L -2.615 46.861 L -2.615 45.411 L -2.601 44.972 L -2.49 43.192 L -2.49 41.311 L -2.448 40.549 L -2.241 38.654 L -2.153 36.804 L -2.139 34.976 L -2.139 32.902 L -2.139 32.84 L -2.121 30.873 L -2.121 29.013 L -2.12 28.915 L -2.097 27.228 L -2.086 27.179 L -2.022 26.312 L -1.823 24.968 L -1.727 23.722 L -1.695 22.333 L -1.673 22.233 L -1.582 21.246 L -1.376 20.129 L -1.317 18.899 L -1.297 18.819 L -1.265 18.34 L -1.116 17.238 L -1.058 16.18 L -1.009 14.965 L -0.934 14.656 L -0.777 13.503 L -0.719 13.293 L -0.694 12.668 L -0.692 12.659 L -0.69 12.582 L -0.632 11.518 L -0.599 11.386 L -0.544 10.77 L -0.414 10.032 L -0.356 9.28 L -0.351 9.264 L -0.348 9.198 L -0.267 8.339 L -0.144 7.917 L -0.032 7.161 L 0.058 6.866 L 0.102 6.208 L 0.102 6.207 L 0.025 6.104 L -0.024 5.924 L -0.097 5.866 L -0.237 5.691 L -0.343 5.649 L -0.498 5.524 L -0.579 5.481 L -0.838 5.44 L -1.154 5.28 L -1.395 5.22 L -1.694 5.006 L -2.21 4.744 L -2.384 4.511 L -2.922 4.125 L -3.115 3.829 L -3.252 3.74 L -3.756 3.041 L -4.023 2.797 L -4.084 2.587 L -4.308 2.275 L -4.76 0.459 L -4.776 0.151 L -4.782 -0.105 L -4.407 -1.967 L -3.382 -3.487 L -1.862 -4.512 L 0 -4.887 Z "/>
      </g>
      <g transform="matrix(1, 0, 0, 1, 113.75, 27.625)">
        <path fill-mode="evenodd" fill="rgb(0.784313725490196%, 64.7058823529412%, 33.7254901960784%)" d="M 1.401 -6.45 L 2.777 -6.42 L 2.805 -6.413 L 3.214 -6.395 L 4.719 -6.257 L 7.028 -5.59 L 7.058 -5.567 L 7.08 -5.562 L 8.305 -4.931 L 9.618 -4.309 L 10.035 -4.031 L 10.441 -3.836 L 12.085 -2.73 L 12.29 -2.503 L 12.696 -2.261 L 14.225 -0.944 L 14.536 -0.533 L 14.942 -0.224 L 16.344 1.411 L 16.483 1.644 L 16.632 1.77 L 17.881 3.434 L 18.055 3.761 L 18.206 3.904 L 19.45 5.874 L 19.46 5.895 L 19.467 5.902 L 20.712 7.871 L 20.952 8.397 L 21.22 8.827 L 22.253 11.201 L 22.294 11.392 L 22.424 11.628 L 23.332 14.112 L 23.34 14.154 L 23.358 14.187 L 24.289 16.768 L 24.339 17.052 L 24.466 17.326 L 25.175 19.91 L 25.249 20.45 L 25.355 20.765 L 25.751 23.444 L 26.219 26.129 L 26.25 26.486 L 26.286 26.604 L 26.567 29.205 L 26.609 29.959 L 26.608 30.037 L 26.577 32.773 L 26.577 32.773 L 26.543 35.613 L 26.541 35.624 L 26.531 35.933 L 26.378 38.472 L 26.341 38.613 L 26.288 39.216 L 25.815 41.876 L 25.813 41.882 L 25.348 44.496 L 25.17 44.973 L 25.082 45.485 L 24.293 47.724 L 24.246 47.81 L 24.233 47.878 L 23.358 50.122 L 23.204 50.386 L 23.166 50.554 L 22.08 52.79 L 22.043 52.845 L 22.035 52.876 L 21.053 54.794 L 20.877 54.983 L 20.601 55.532 L 19.41 57.221 L 18.314 58.916 L 18 59.207 L 17.631 59.785 L 16.22 61.297 L 14.698 63.023 L 14.349 63.282 L 14.093 63.621 L 12.524 64.981 L 12.42 65.043 L 12.361 65.118 L 10.806 66.383 L 10.401 66.613 L 10.215 66.811 L 8.706 67.783 L 7.314 68.804 L 7.235 68.845 L 7.198 68.887 L 5.549 70.05 L 5.07 70.291 L 4.553 70.631 L 2.805 71.455 L 2.799 71.456 L 1.211 72.222 L -0.243 73.042 L -0.359 73.072 L -0.556 73.207 L -2.201 74.031 L -2.249 74.043 L -2.311 74.084 L -3.965 74.887 L -4.152 74.93 L -4.422 75.089 L -5.956 75.704 L -6.067 75.726 L -6.184 75.79 L -7.827 76.392 L -8.216 76.462 L -8.6 76.625 L -10.243 77.015 L -10.448 77.039 L -10.562 77.083 L -11.898 77.339 L -12.316 77.38 L -12.463 77.424 L -13.911 77.578 L -14.611 77.616 L -14.87 77.611 L -16.142 77.559 L -18.497 76.994 L -18.504 76.989 L -19.26 76.644 L -20.05 76.433 L -20.495 76.228 L -20.828 76.16 L -21.91 75.702 L -23.126 74.952 L -23.367 74.815 L -24.306 74.049 L -24.576 73.707 L -24.962 73.426 L -26.009 72.275 L -26.051 72.207 L -26.106 72.166 L -27.176 70.934 L -27.637 70.167 L -27.917 69.879 L -28.742 68.403 L -29.73 66.781 L -29.922 66.347 L -30.133 66.01 L -30.987 64.065 L -30.988 64.061 L -32.001 61.877 L -32.058 61.621 L -32.251 61.259 L -33.079 58.885 L -33.08 58.876 L -34.001 56.321 L -34.031 56.154 L -34.11 55.995 L -34.938 53.307 L -34.97 53.099 L -35.041 52.936 L -35.768 50.037 L -35.791 49.848 L -35.836 49.736 L -36.436 46.829 L -36.464 46.56 L -36.505 46.439 L -36.906 43.741 L -37.368 41.419 L -37.495 40.155 L -37.495 40.155 L -37.493 39.983 L -37.424 37.454 L -37.413 37.408 L -37.385 36.919 L -37.117 34.596 L -36.953 32.594 L -36.912 32.448 L -36.868 31.979 L -36.484 29.955 L -36.465 29.905 L -36.457 29.829 L -35.99 27.695 L -35.917 27.518 L -35.885 27.3 L -35.311 25.377 L -35.132 25.014 L -35.077 24.752 L -34.29 22.943 L -34.011 22.499 L -33.958 22.306 L -33.072 20.827 L -32.456 19.772 L -31.84 18.305 L -31.564 17.857 L -31.51 17.656 L -30.637 16.168 L -30.466 15.999 L -30.247 15.594 L -29.483 14.601 L -28.955 13.618 L -28.843 13.501 L -28.803 13.358 L -27.947 11.967 L -27.815 11.84 L -27.662 11.551 L -26.81 10.415 L -26.048 9.27 L -25.74 8.99 L -25.395 8.467 L -24.579 7.627 L -24.011 6.817 L -23.731 6.572 L -23.445 6.135 L -22.627 5.287 L -21.8 4.332 L -21.443 4.062 L -21.177 3.713 L -20.285 2.952 L -19.288 1.993 L -18.98 1.792 L -18.797 1.569 L -17.714 0.732 L -16.971 0.13 L -16.631 -0.063 L -16.471 -0.236 L -15.348 -0.975 L -14.756 -1.255 L -14.588 -1.403 L -13.747 -1.802 L -13.029 -2.248 L -11.653 -2.867 L -11.536 -2.924 L -11.507 -2.932 L -11.497 -2.937 L -11.488 -2.938 L -10.528 -3.227 L -10.498 -3.232 L -10.482 -3.24 L -9.875 -3.422 L -9.559 -3.59 L -9.36 -3.64 L -9.172 -3.704 L -8.753 -3.921 L -8.099 -4.328 L -6.975 -4.819 L -6.906 -4.834 L -6.828 -4.881 L -5.39 -5.478 L -4.68 -5.621 L -3.766 -5.918 L -2.331 -6.108 L -1.094 -6.299 L -0.55 -6.342 L -0.45 -6.367 L 0.896 -6.441 L 1.261 -6.452 Z M -0.482 6.299 L -0.512 6.301 L -0.519 6.304 L -1.159 6.402 L -1.82 6.696 L -1.821 6.696 L -2.331 6.938 L -2.895 7.348 L -3.814 8.084 L -3.867 8.114 L -3.895 8.147 L -4.171 8.363 L -4.306 8.542 L -4.578 8.77 L -4.831 9.152 L -4.998 9.324 L -5.126 9.535 L -5.512 9.91 L -6.048 10.701 L -6.523 11.171 L -7.799 12.026 L -8.448 12.464 L -8.454 12.465 L -8.46 12.469 L -10.827 12.944 L -13.198 12.465 L -13.393 12.612 L -14.006 13.267 L -14.127 13.352 L -14.212 13.476 L -14.842 14.083 L -15.435 14.871 L -15.739 15.125 L -16.019 15.531 L -16.748 16.24 L -17.261 17.009 L -17.347 17.087 L -17.434 17.251 L -18.22 18.301 L -18.837 19.304 L -19.505 20.546 L -19.7 20.75 L -19.999 21.302 L -20.788 22.327 L -21.226 23.117 L -21.824 24.607 L -22.077 25.032 L -22.131 25.239 L -22.973 26.747 L -22.974 26.747 L -23.556 27.819 L -23.991 28.942 L -24.338 30.3 L -24.652 32.041 L -24.842 33.552 L -24.874 35.331 L -24.877 35.343 L -24.883 35.572 L -25.009 37.73 L -24.963 39.393 L -24.548 41.295 L -24.513 41.608 L -24.463 41.755 L -24.074 44.378 L -23.48 47.044 L -23.48 47.045 L -22.808 49.727 L -22.057 52.162 L -21.186 54.578 L -21.175 54.637 L -21.149 54.687 L -20.39 56.864 L -19.487 58.886 L -19.463 58.997 L -19.382 59.132 L -18.723 60.762 L -17.925 62.166 L -17.881 62.329 L -17.775 62.445 L -17.249 63.476 L -16.741 64.11 L -16.383 64.504 L -15.678 64.667 L -15.29 64.833 L -14.983 64.888 L -14.54 64.808 L -13.508 64.527 L -13.45 64.519 L -13.417 64.504 L -12.078 64.15 L -10.786 63.652 L -10.778 63.65 L -9.522 63.146 L -8.173 62.449 L -8.126 62.438 L -8.064 62.395 L -6.505 61.614 L -5.013 60.774 L -4.833 60.726 L -4.508 60.516 L -2.753 59.708 L -2.746 59.706 L -1.418 59.08 L -0.239 58.289 L 1.2 57.233 L 1.544 57.054 L 1.686 56.907 L 3.051 56.078 L 4.21 55.165 L 5.344 54.183 L 6.641 52.712 L 6.707 52.664 L 6.756 52.586 L 7.839 51.426 L 8.701 50.092 L 8.766 50.032 L 8.832 49.901 L 9.793 48.539 L 10.498 47.089 L 11.372 45.213 L 12.048 43.388 L 12.528 41.856 L 12.83 39.721 L 12.831 39.717 L 13.144 37.504 L 13.19 35.492 L 13.158 32.775 L 13.158 32.769 L 13.158 32.769 L 13.131 30.442 L 12.863 28.419 L 12.357 25.848 L 12.338 25.656 L 12.308 25.57 L 11.933 23.239 L 11.352 21.214 L 10.505 18.867 L 10.504 18.862 L 9.613 16.55 L 8.84 14.776 L 7.88 13.257 L 7.871 13.236 L 7.864 13.23 L 6.744 11.459 L 5.666 10.021 L 5.665 10.021 L 4.65 8.702 L 3.813 7.864 L 2.916 7.148 L 1.926 6.55 L 1.877 6.498 L 1.763 6.445 L 1.609 6.345 L 1.578 6.339 L 0.663 6.218 L 0.204 6.193 Z "/>
      </g>
      <g transform="matrix(1, 0, 0, 1, 155.375, 31.5)">
        <path fill-mode="evenodd" fill="rgb(0.784313725490196%, 64.7058823529412%, 33.7254901960784%)" d="M 40.373 -56.131 L 40.469 -56.066 L 40.561 -56.046 L 41.068 -55.814 L 41.363 -55.621 L 41.705 -55.471 L 41.884 -55.281 L 42.612 -54.806 L 43.814 -53.417 L 43.92 -53.19 L 44.059 -53.035 L 44.572 -52.209 L 44.905 -51.874 L 45.475 -50.891 L 45.546 -50.722 L 45.64 -50.589 L 46.315 -49.294 L 46.351 -49.15 L 46.493 -48.929 L 47.276 -47.214 L 47.324 -46.996 L 47.487 -46.703 L 48.123 -44.993 L 49.013 -42.952 L 49.075 -42.661 L 49.267 -42.287 L 50.146 -39.622 L 50.164 -39.513 L 50.208 -39.424 L 51.087 -36.548 L 51.097 -36.486 L 51.117 -36.444 L 52.099 -33.147 L 52.106 -33.1 L 52.119 -33.071 L 53.09 -29.771 L 53.116 -29.591 L 53.174 -29.459 L 54.042 -26.051 L 54.059 -25.92 L 54.092 -25.841 L 54.856 -22.537 L 54.9 -22.165 L 54.966 -21.976 L 55.524 -18.451 L 55.571 -17.873 L 55.605 -17.744 L 55.839 -14.285 L 56.171 -10.98 L 56.211 -10.196 L 56.211 -10.196 L 56.189 -9.617 L 55.921 -6.147 L 55.856 -2.787 L 55.842 -2.726 L 55.784 -1.891 L 55.309 1.522 L 55.296 1.559 L 55.29 1.637 L 54.708 5.265 L 54.702 5.281 L 54.7 5.303 L 54.113 8.722 L 54.058 8.872 L 54.03 9.122 L 53.209 12.651 L 53.005 13.129 L 52.925 13.57 L 51.748 16.709 L 50.682 19.924 L 50.461 20.344 L 50.399 20.63 L 48.955 23.805 L 48.902 23.888 L 48.89 23.938 L 47.449 26.899 L 47.295 27.125 L 47.184 27.384 L 45.442 30.338 L 45.397 30.395 L 45.373 30.449 L 43.737 33.083 L 43.597 33.217 L 43.44 33.52 L 41.6 36.035 L 41.508 36.114 L 41.423 36.265 L 39.588 38.562 L 39.319 38.778 L 39.089 39.122 L 37.157 41.082 L 37.068 41.142 L 37.008 41.228 L 35.185 42.973 L 34.536 43.396 L 34.199 43.765 L 32.407 44.964 L 32.057 45.132 L 31.715 45.376 L 29.835 46.36 L 29.715 46.389 L 29.533 46.509 L 27.662 47.392 L 27.109 47.518 L 26.121 47.921 L 24.475 48.285 L 24.124 48.324 L 23.958 48.381 L 22.203 48.644 L 21.129 48.726 L 20.407 48.689 L 18.909 48.534 L 18.484 48.406 L 17.713 48.296 L 16.098 47.827 L 15.917 47.739 L 15.748 47.71 L 14.136 47.134 L 13.492 46.779 L 12.665 46.38 L 11.19 45.388 L 11.15 45.343 L 11.068 45.302 L 9.385 44.104 L 9.049 43.717 L 8.483 43.328 L 7.315 42.131 L 6.047 41.017 L 5.73 40.591 L 5.331 40.282 L 4.096 38.806 L 3.802 38.301 L 3.56 38.071 L 2.549 36.471 L 1.463 35.001 L 1.247 34.589 L 0.891 34.084 L -0.129 32.116 L -0.156 32.005 L -0.265 31.838 L -1.283 29.663 L -1.305 29.565 L -1.383 29.439 L -2.185 27.58 L -2.221 27.411 L -2.334 27.206 L -2.89 25.701 L -3.556 24.518 L -3.655 24.146 L -4.183 23.009 L -4.654 21.319 L -5.189 19.808 L -5.255 19.429 L -5.405 19.075 L -5.793 17.433 L -5.797 17.4 L -5.803 17.387 L -6.214 15.645 L -6.27 15.173 L -6.342 14.951 L -6.469 13.989 L -6.716 13.159 L -6.893 11.958 L -6.99 11.562 L -7.049 10.33 L -7.171 9.544 L -7.214 9 L -7.241 8.893 L -7.314 7.648 L -7.326 7.253 L -7.322 7.03 L -7.278 5.759 L -7.27 5.724 L -7.255 5.399 L -7.156 4.331 L -7.15 4.307 L -7.145 4.225 L -7.048 3.366 L -6.947 3.038 L -6.865 2.434 L -6.799 2.197 L -6.77 1.932 L -6.614 1.424 L -6.528 0.895 L -6.455 0.299 L -6.452 0.26 L -6.449 0.248 L -6.418 -0.001 L -6.304 -0.464 L -6.21 -0.676 L -6.07 -1.433 L -5.923 -1.676 L -5.855 -1.927 L -5.415 -2.518 L -4.975 -3.246 L -4.67 -3.596 L -4.543 -3.691 L -4.538 -3.697 L -4.516 -3.711 L -4.241 -3.916 L -4.111 -4.111 L -4.014 -4.176 L -3.87 -4.353 L -3.599 -4.566 L -2.741 -5.039 L -2.699 -5.071 L -2.681 -5.075 L -2.263 -5.356 L -2.11 -5.387 L -1.938 -5.482 L 0 -5.813 L 2.263 -5.356 L 4.111 -4.111 L 5.356 -2.263 L 5.813 0 L 5.603 1.551 L 5.583 1.622 L 5.548 1.905 L 5.548 1.997 L 5.501 2.287 L 5.472 2.524 L 5.445 2.634 L 5.395 2.941 L 5.419 3.364 L 5.418 3.45 L 5.414 3.788 L 5.46 4.196 L 5.468 4.326 L 5.477 4.357 L 5.571 5.373 L 5.588 5.734 L 5.596 5.77 L 5.632 6.79 L 5.708 7.492 L 5.875 8.284 L 5.941 8.91 L 5.998 9.113 L 6.07 9.946 L 6.267 10.559 L 6.363 11.168 L 6.517 11.612 L 6.705 12.831 L 7.055 14.314 L 7.055 14.314 L 7.399 15.612 L 7.922 17.088 L 7.965 17.335 L 8.073 17.567 L 8.384 18.685 L 8.917 19.631 L 8.999 19.941 L 9.377 20.623 L 10.032 22.396 L 10.765 23.991 L 10.765 23.994 L 11.743 26.007 L 12.482 27.385 L 13.417 28.612 L 13.555 28.868 L 13.683 28.986 L 14.61 30.383 L 15.242 31.103 L 16.341 32.021 L 16.487 32.21 L 16.716 32.361 L 17.642 33.264 L 18.721 33.98 L 19.355 34.368 L 19.933 34.546 L 20.588 34.704 L 21.272 34.564 L 21.953 34.372 L 23.025 33.804 L 24.401 32.992 L 25.352 32.283 L 26.614 30.965 L 28.164 29.262 L 29.614 27.32 L 31.115 25.13 L 32.493 22.748 L 33.913 20.178 L 35.068 17.559 L 36.165 14.89 L 37.053 11.856 L 37.108 11.742 L 37.126 11.632 L 38.133 8.614 L 38.89 5.603 L 39.537 2.408 L 39.538 2.406 L 40.196 -1.021 L 40.667 -3.752 L 40.788 -6.83 L 40.798 -6.874 L 40.815 -7.229 L 41.099 -10.245 L 40.872 -13.026 L 40.862 -13.26 L 40.854 -13.291 L 40.691 -16.549 L 40.28 -19.567 L 39.646 -22.631 L 39.645 -22.635 L 38.89 -25.899 L 38.039 -29.056 L 38.033 -29.105 L 38.021 -29.132 L 37.136 -32.458 L 37.132 -32.49 L 37.126 -32.503 L 36.35 -35.41 L 36.349 -35.419 L 35.667 -37.792 L 34.906 -39.771 L 34.854 -40.05 L 34.712 -40.345 L 34.204 -42.053 L 33.641 -43.571 L 33.153 -44.773 L 33.152 -44.779 L 32.858 -45.464 L 32.614 -45.902 L 32.598 -45.965 L 32.205 -47.089 L 31.853 -47.611 L 31.832 -47.716 L 31.768 -47.821 L 31.342 -50.141 L 31.853 -52.672 L 33.246 -54.738 L 35.312 -56.131 L 37.843 -56.642 Z "/>
      </g>
      <g transform="matrix(1, 0, 0, 1, 243.375, -94.25)">
        <path fill-mode="evenodd" fill="rgb(0.784313725490196%, 64.7058823529412%, 33.7254901960784%)" d="M 2.072 -5.26 L 3.85 -4.061 L 5.049 -2.283 L 5.489 -0.105 L 5.306 1.313 L 5.213 1.673 L 5.143 1.827 L 5.117 1.986 L 5 2.341 L 4.997 2.348 L 4.921 2.578 L 4.933 2.838 L 4.92 3.227 L 4.883 3.773 L 4.883 4.471 L 4.898 5.363 L 4.899 5.466 L 4.863 6.112 L 4.794 6.739 L 4.794 7.569 L 4.758 8.214 L 4.688 8.841 L 4.688 9.986 L 4.389 11.835 L 4.373 11.881 L 4.373 13.694 L 4.412 15.184 L 4.413 15.197 L 4.413 15.197 L 4.435 16.089 L 4.652 17.058 L 4.709 17.564 L 4.769 17.764 L 4.957 19.515 L 4.958 19.541 L 4.959 19.546 L 5.156 21.401 L 5.159 21.451 L 5.162 21.462 L 5.36 23.423 L 5.36 23.441 L 5.361 23.444 L 5.52 25.006 L 5.911 26.627 L 5.965 27.075 L 6.038 27.295 L 6.29 29.115 L 6.709 30.954 L 7.263 33.058 L 7.305 33.378 L 7.379 33.574 L 7.803 35.844 L 8.395 38.048 L 8.4 38.083 L 8.407 38.1 L 9.067 40.565 L 9.071 40.597 L 9.078 40.612 L 9.738 43.077 L 9.743 43.114 L 9.751 43.132 L 10.493 45.918 L 10.51 46.045 L 10.544 46.126 L 11.146 48.627 L 11.799 50.88 L 12.648 53.234 L 12.671 53.36 L 12.731 53.477 L 13.573 56.051 L 13.612 56.294 L 13.704 56.498 L 14.323 58.867 L 14.325 58.879 L 14.903 60.993 L 15.451 62.633 L 15.5 62.93 L 15.613 63.188 L 16.079 65.048 L 16.607 66.627 L 16.637 66.807 L 16.71 66.961 L 17.013 68.019 L 17.452 69.04 L 17.519 69.362 L 17.722 69.771 L 18.049 70.83 L 18.426 71.731 L 18.458 71.89 L 18.558 72.071 L 18.963 73.18 L 18.964 73.19 L 19.221 73.869 L 19.462 74.425 L 19.61 75.133 L 19.964 76.184 L 19.989 76.361 L 20.015 76.44 L 20.348 78.5 L 20.352 78.519 L 20.352 79.149 L 20.352 79.154 L 20.337 79.601 L 20.308 80.017 L 20.056 80.963 L 19.882 81.861 L 19.715 82.279 L 19.697 82.31 L 19.692 82.335 L 19.608 82.46 L 18.861 83.718 L 18.595 83.962 L 18.461 84.16 L 18.156 84.366 L 17.637 84.845 L 16.957 85.174 L 16.636 85.391 L 16.423 85.434 L 16.123 85.579 L 14.401 85.842 L 13.212 85.602 L 12.884 85.567 L 12.452 85.474 L 12.332 85.424 L 12.166 85.391 L 12.103 85.348 L 11.852 85.308 L 11.025 84.887 L 10.442 84.647 L 10.29 84.512 L 10.09 84.41 L 9.308 83.642 L 8.841 83.229 L 8.784 83.128 L 8.692 83.038 L 8.094 81.906 L 8.057 81.84 L 7.999 81.758 L 7.907 81.574 L 7.782 81.353 L 7.774 81.311 L 7.708 81.179 L 7.331 80.575 L 7.326 80.564 L 7.281 80.502 L 6.871 79.714 L 6.379 78.838 L 6.08 78.044 L 6.069 77.985 L 6.04 77.932 L 5.662 76.898 L 5.226 75.855 L 5.165 75.552 L 4.984 75.187 L 4.667 74.163 L 4.202 73.08 L 4.124 72.703 L 3.893 72.215 L 3.504 70.857 L 2.945 69.185 L 2.895 68.888 L 2.783 68.63 L 2.316 66.77 L 1.788 65.191 L 1.752 64.969 L 1.663 64.777 L 1.044 62.513 L 1.034 62.437 L 1.013 62.391 L 0.416 60.109 L -0.321 57.765 L -1.191 55.353 L -1.243 55.059 L -1.373 54.774 L -2.075 52.188 L -2.094 52.044 L -2.135 51.949 L -2.756 49.368 L -2.757 49.356 L -3.454 46.606 L -3.468 46.499 L -3.494 46.435 L -4.075 43.949 L -4.079 43.916 L -4.085 43.903 L -4.666 41.417 L -4.67 41.38 L -4.676 41.366 L -5.255 38.879 L -5.302 38.485 L -5.367 38.291 L -5.721 35.891 L -6.131 33.765 L -6.15 33.568 L -6.179 33.483 L -6.517 31.301 L -6.558 30.784 L -6.585 30.678 L -6.697 28.879 L -6.982 27.106 L -7.063 26.113 L -7.066 26.096 L -7.075 24.1 L -7.085 22.108 L -7.085 22.108 L -7.095 20.233 L -7.11 18.954 L -7.299 17.888 L -7.395 16.819 L -7.394 16.668 L -7.356 15.189 L -7.356 15.189 L -7.316 13.692 L -7.316 10.932 L -7.017 9.084 L -7.001 9.038 L -7.001 8.515 L -6.965 7.869 L -6.896 7.242 L -6.896 6.412 L -6.86 5.767 L -6.785 5.09 L -6.775 4.471 L -6.775 3.574 L -6.639 2.323 L -6.56 1.959 L -6.536 1.684 L -6.417 1.268 L -6.303 0.514 L -6.141 -0.011 L -6.052 -0.554 L -5.82 -0.992 L -5.709 -1.35 L -5.538 -1.569 L -5.526 -1.605 L -5.437 -1.775 L -5.41 -1.91 L -5.271 -2.254 L -5.262 -2.27 L -5.26 -2.283 L -5.213 -2.352 L -4.436 -3.646 L -4.186 -3.875 L -4.061 -4.061 L -3.764 -4.261 L -3.245 -4.735 L -2.592 -5.051 L -2.283 -5.26 L -2.073 -5.302 L -1.776 -5.445 L -0.105 -5.699 Z "/>
      </g>
    </g>
    <g transform="matrix(1, 0, 0, 1, 824.5, 613.125)">
      <path fill-mode="evenodd" fill="rgb(0.784313725490196%, 64.7058823529412%, 33.7254901960784%)" d="M 6.691 -15.542 L 7.889 -15.372 L 8.321 -15.227 L 8.911 -15.135 L 9.594 -14.919 L 10.497 -14.691 L 11.076 -14.433 L 11.48 -14.348 L 12.382 -13.954 L 12.787 -13.699 L 13.239 -13.491 L 14.422 -12.74 L 14.513 -12.642 L 14.715 -12.539 L 15.552 -11.936 L 16.563 -11.229 L 16.611 -11.174 L 16.707 -11.123 L 17.685 -10.394 L 18.099 -9.901 L 18.7 -9.451 L 19.429 -8.618 L 19.84 -7.938 L 20.138 -7.647 L 20.752 -6.625 L 20.762 -6.602 L 20.769 -6.596 L 21.225 -5.836 L 21.633 -5.292 L 21.906 -4.779 L 22.102 -4.581 L 22.434 -4.002 L 22.847 -3.366 L 23.111 -2.804 L 23.405 -2.327 L 23.703 -1.634 L 23.858 -0.89 L 24.211 0.219 L 24.238 0.436 L 24.269 0.532 L 24.335 0.947 L 24.464 1.276 L 24.585 1.858 L 24.682 2.795 L 24.724 2.969 L 24.755 3.689 L 24.762 3.994 L 24.63 5.325 L 24.518 5.895 L 24.282 6.493 L 24.243 6.727 L 24.072 7.201 L 23.979 7.765 L 23.632 8.42 L 23.439 8.956 L 23.19 9.254 L 22.984 9.643 L 22.881 9.781 L 22.727 10.039 L 22.609 10.154 L 22.473 10.424 L 22.157 10.875 L 22.102 10.923 L 22.051 11.019 L 21.892 11.231 L 21.607 11.679 L 20.221 12.98 L 20.013 13.191 L 19.812 13.457 L 19.445 13.776 L 19.264 13.967 L 19.157 14.042 L 19.025 14.206 L 17.53 15.289 L 17.197 15.468 L 17.189 15.473 L 16.779 15.825 L 16.434 16.03 L 15.621 16.589 L 15.475 16.736 L 15.374 16.804 L 15.256 16.945 L 13.689 18.023 L 13.097 18.32 L 12.921 18.362 L 12.656 18.523 L 11.894 18.846 L 11.771 18.908 L 11.446 19.113 L 10.503 19.544 L 10.012 19.805 L 9.691 19.917 L 9.24 20.097 L 7.43 20.447 L 7.299 20.48 L 7.196 20.493 L 6.728 20.583 L 6.56 20.572 L 5.676 20.681 L 5.367 20.674 L 4.932 20.653 L 3.117 20.207 L 2.581 20.093 L 2.489 20.052 L 2.487 20.051 L 2.485 20.05 L 2.415 20.019 L 1.77 19.889 L 1.636 19.799 L 1.479 19.757 L 0.971 19.384 L 0.805 19.297 L 0.613 19.258 L 0.197 18.977 L -0.73 18.49 L -1.141 18.075 L -1.461 17.86 L -1.882 17.439 L -2.116 17.091 L -2.128 17.08 L -2.14 17.056 L -2.467 16.57 L -2.485 16.553 L -2.621 16.446 L -2.736 16.307 L -2.863 16.182 L -2.929 16.072 L -2.946 16.051 L -3.042 15.885 L -3.162 15.685 L -3.165 15.678 L -3.347 15.512 L -3.753 14.904 L -3.942 14.511 L -4.075 14.372 L -4.271 14.011 L -4.509 13.656 L -4.907 12.825 L -5.093 12.488 L -5.311 12.155 L -5.37 12.03 L -5.446 11.942 L -5.607 11.527 L -6.116 10.448 L -6.171 10.072 L -6.199 10.002 L -6.47 9.506 L -6.68 8.927 L -6.711 8.753 L -6.793 8.586 L -6.833 8.459 L -6.852 8.421 L -6.887 8.285 L -7.005 7.903 L -7.011 7.869 L -7.522 6.541 L -7.637 5.956 L -7.638 5.943 L -7.638 5.943 L -7.695 5.665 L -7.767 5.558 L -7.823 5.279 L -8.039 4.784 L -8.294 2.943 L -8.294 2.921 L -8.369 2.81 L -8.724 1.051 L -8.555 -0.174 L -8.136 -1.667 L -8.034 -1.882 L -7.999 -2.068 L -7.354 -3.739 L -7.103 -4.655 L -7.076 -4.715 L -7.066 -4.775 L -6.706 -5.954 L -6.306 -6.755 L -6.227 -7.055 L -5.708 -7.98 L -5.273 -8.913 L -5.029 -9.191 L -4.263 -10.41 L -3.509 -11.233 L -3.164 -11.482 L -2.924 -11.791 L -1.953 -12.604 L -1.396 -12.929 L -1.158 -13.173 L -0.26 -13.717 L 0.39 -14.003 L 0.806 -14.237 L 1.461 -14.486 L 2.073 -14.788 L 2.572 -14.905 L 3.848 -15.368 L 4.643 -15.506 L 5.781 -15.606 Z M 7.91 -0.948 L 7.398 0.013 L 7.012 0.384 L 6.798 0.701 L 6.408 0.964 L 6.157 1.206 L 5.873 1.756 L 5.585 2.405 L 5.476 2.524 L 5.412 2.647 L 5.456 2.906 L 5.529 3.264 L 5.56 3.575 L 5.565 3.59 L 5.833 4.183 L 6.001 4.816 L 6.014 4.858 L 6.101 5.045 L 6.235 5.642 L 6.28 5.778 L 6.379 5.944 L 6.506 6.237 L 6.657 6.166 L 7.259 5.664 L 7.667 5.427 L 8.33 4.971 L 8.555 4.778 L 9.005 4.51 L 9.224 4.27 L 9.83 3.865 L 10.312 3.634 L 10.356 3.606 L 10.443 3.497 L 11.038 3.02 L 10.995 2.947 L 10.945 2.834 L 10.905 2.794 L 10.689 2.417 L 10.323 1.928 L 10.101 1.512 L 9.926 1.34 L 9.312 0.318 L 9.302 0.295 L 9.295 0.288 L 8.986 -0.227 L 8.704 -0.455 L 7.938 -0.99 Z "/>
    </g>
  </g>
</svg>